<svg width="583" height="88" viewBox="0 0 583 88" fill="none" xmlns="http://www.w3.org/2000/svg">
<path d="M30.7 82.3C26.6 82.3 22.6 82.0001 18.5 81.4001L17.9 81.3C8.69999 80.2 3.10001 77.2001 1.20001 72.4001C1.10001 71.6001 1 70.8 1 70.1C1 66.7 3.29999 63.2001 7.79999 59.7001C10.3 57.8001 12.7 56.8 14.9 56.8C17.6 56.8 19.3 58.0001 20 60.4001L20.1 61.5001C20.1 63.7001 18.7 65.8001 15.8 67.9001C12.4 70.4001 9.09999 71.8001 5.79999 72.2001L6.29999 72.7001C7.39999 73.8001 8.70001 74.6 10.1 75.1C12.6 75.9 14.2 76.3 14.9 76.3C20.1 77.5 25.4 78.1 30.7 78.1C43.3 78.1 55.3 75.0001 66.7 68.9001C67 68.7001 67.4 68.6 67.8 68.6C68.1 68.6 68.6 68.8 69 69.1C69.5 69.4 69.7 70.0001 69.7 70.9001C69.7 71.6001 69.3 72.1001 68.6 72.4001C56.9 79.0001 44.3 82.3 30.7 82.3ZM5.5 68.3C6.4 68.2 7.60001 67.8001 9.20001 67.0001C11.8 65.7001 13.8 64.4001 15.2 63.2001C15.7 62.8001 15.9 62.3 15.9 61.8C15.9 61.3 15.6 61.1 15.1 61.1C13.1 61.1 10.9 62.3 8.5 64.8C6.9 65.9 5.9 67.2 5.5 68.3Z" fill="#EB4301"/>
<path d="M30.7 82.3C26.6 82.3 22.6 82.0001 18.5 81.4001L17.9 81.3C8.69999 80.2 3.10001 77.2001 1.20001 72.4001C1.10001 71.6001 1 70.8 1 70.1C1 66.7 3.29999 63.2001 7.79999 59.7001C10.3 57.8001 12.7 56.8 14.9 56.8C17.6 56.8 19.3 58.0001 20 60.4001L20.1 61.5001C20.1 63.7001 18.7 65.8001 15.8 67.9001C12.4 70.4001 9.09999 71.8001 5.79999 72.2001L6.29999 72.7001C7.39999 73.8001 8.70001 74.6 10.1 75.1C12.6 75.9 14.2 76.3 14.9 76.3C20.1 77.5 25.4 78.1 30.7 78.1C43.3 78.1 55.3 75.0001 66.7 68.9001C67 68.7001 67.4 68.6 67.8 68.6C68.1 68.6 68.6 68.8 69 69.1C69.5 69.4 69.7 70.0001 69.7 70.9001C69.7 71.6001 69.3 72.1001 68.6 72.4001C56.9 79.0001 44.3 82.3 30.7 82.3ZM5.5 68.3C6.4 68.2 7.60001 67.8001 9.20001 67.0001C11.8 65.7001 13.8 64.4001 15.2 63.2001C15.7 62.8001 15.9 62.3 15.9 61.8C15.9 61.3 15.6 61.1 15.1 61.1C13.1 61.1 10.9 62.3 8.5 64.8C6.9 65.9 5.9 67.2 5.5 68.3Z" stroke="#EB4301" stroke-width="2" stroke-miterlimit="10"/>
<path d="M69.3 83.4001C68.7 83.4001 68.2 83.3 67.8 83.1C66.3 82.2 65.5 80.4001 65.5 77.7001C65.5 73.7001 66.6 70.2001 68.9 67.2001C69.4 66.6001 69.9 66.3 70.5 66.3C71.3 66.3 72 66.6 72.5 67.3C72.7 67.6 72.8 67.9001 72.8 68.2001C72.8 68.5001 72.7 68.9 72.4 69.3C70.5 71.8 69.6 74.5001 69.6 77.5001V78.4001C69.6 78.7001 69.7 78.8 69.8 78.8C69.9 78.8 70.2 78.6001 70.6 78.2001C71 77.8001 71.9 77.1001 73.3 76.2001L77.9 72.9001C82.4 69.3001 86.3 67.4001 89.4 67.4001C92.1 67.4001 94.3 68.6001 95.9 70.9001C97 72.3001 98.6 73.0001 100.7 73.0001C102.6 73.0001 107.9 72.0001 116.7 69.9001C120.9 68.9001 123.3 68.5001 123.8 68.5001C124.3 68.5001 124.8 68.7001 125.2 69.2001C125.6 69.7001 125.8 70.2001 125.8 70.7001C125.8 71.5001 125.3 72.1 124.4 72.6L117.7 73.9001C115.9 74.3001 114.1 74.7001 112.2 75.0001L109.5 75.6C105.7 76.6 102.6 77.1 100.2 77.1C96.8 77.1 94.3 75.9001 92.7 73.4001C91.9 72.0001 90.9 71.3 89.6 71.3C89.3 71.3 88.7 71.4 88 71.6C86.4 72 83.4 73.9001 78.8 77.2001L74.6 80.2001C72.5 82.4001 70.7 83.4001 69.3 83.4001Z" fill="#EB4301"/>
<path d="M69.3 83.4001C68.7 83.4001 68.2 83.3 67.8 83.1C66.3 82.2 65.5 80.4001 65.5 77.7001C65.5 73.7001 66.6 70.2001 68.9 67.2001C69.4 66.6001 69.9 66.3 70.5 66.3C71.3 66.3 72 66.6 72.5 67.3C72.7 67.6 72.8 67.9001 72.8 68.2001C72.8 68.5001 72.7 68.9 72.4 69.3C70.5 71.8 69.6 74.5001 69.6 77.5001V78.4001C69.6 78.7001 69.7 78.8 69.8 78.8C69.9 78.8 70.2 78.6001 70.6 78.2001C71 77.8001 71.9 77.1001 73.3 76.2001L77.9 72.9001C82.4 69.3001 86.3 67.4001 89.4 67.4001C92.1 67.4001 94.3 68.6001 95.9 70.9001C97 72.3001 98.6 73.0001 100.7 73.0001C102.6 73.0001 107.9 72.0001 116.7 69.9001C120.9 68.9001 123.3 68.5001 123.8 68.5001C124.3 68.5001 124.8 68.7001 125.2 69.2001C125.6 69.7001 125.8 70.2001 125.8 70.7001C125.8 71.5001 125.3 72.1 124.4 72.6L117.7 73.9001C115.9 74.3001 114.1 74.7001 112.2 75.0001L109.5 75.6C105.7 76.6 102.6 77.1 100.2 77.1C96.8 77.1 94.3 75.9001 92.7 73.4001C91.9 72.0001 90.9 71.3 89.6 71.3C89.3 71.3 88.7 71.4 88 71.6C86.4 72 83.4 73.9001 78.8 77.2001L74.6 80.2001C72.5 82.4001 70.7 83.4001 69.3 83.4001Z" stroke="#EB4301" stroke-width="2" stroke-miterlimit="10"/>
<path d="M140.6 86.2001C137.8 86.2001 134.8 86.0001 131.6 85.5001C127.3 85.0001 124 82.8001 121.7 78.9001C121 77.4001 120.7 75.8001 120.7 74.3001C120.7 72.4001 121.1 70.6001 122 68.6001C123.3 65.2001 126.2 60.0001 130.6 53.0001C127.1 52.8001 123.6 52.2001 120 51.4001C119 51.1001 118.6 50.5001 118.6 49.6001C118.6 49.1001 118.8 48.6001 119.1 48.1001C119.4 47.7001 119.9 47.4001 120.5 47.4001H121C125.1 48.4001 129.1 48.9001 133.1 49.0001C135 46.1001 136.9 43.3001 139 40.5001V40.4001C141.5 36.8001 144.2 33.3001 146.8 29.9001C150.6 25.5001 154.7 21.4001 159.1 17.6001C159.6 17.3001 160.2 17.1001 160.9 17.1001C161.6 17.1001 162.1 17.4001 162.3 18.1001C162.7 19.1001 162.9 20.1001 162.9 21.1001C162.9 23.0001 161.8 25.7001 159.6 29.2001L158.7 30.7001C154.7 37.3001 150.4 43.3001 145.7 48.7001L179.7 47.9001C181 47.9001 181.7 48.6001 181.7 49.9001C181.7 51.8001 170 52.8001 146.7 52.8001L142.2 52.9001C136.8 59.0001 131.3 65.0001 125.5 70.7001C125.1 71.7001 124.9 72.7001 125.1 73.7001C125.2 75.7001 126 77.4001 127.3 78.8001C128.7 80.3001 130.6 81.2001 132.9 81.4001C134.5 81.6001 136 81.7001 137.5 81.8001H142C164.5 81.7001 187.9 77.4001 212.4 69.1001L213 69.0001C213.5 69.0001 214 69.2001 214.3 69.6001C214.6 70.0001 214.8 70.5001 214.8 70.9001C214.8 71.9001 214.3 72.6001 213.4 73.0001C193.4 80.1001 172.7 84.3001 151.4 85.5001L148.5 85.7001C145.8 86.0001 143.2 86.1001 140.6 86.2001ZM132.6 57.5001L136.5 53.2001H135.3L132.6 57.5001ZM140.1 49.2001C146.5 41.8001 151.7 34.7001 155.7 27.7001L156.5 26.5001C157 25.7001 157.5 25.0001 157.7 24.3001C152.4 29.2001 147.3 35.3001 142.4 42.4001L137.8 49.2001H140.1Z" fill="#EB4301"/>
<path d="M140.6 86.2001C137.8 86.2001 134.8 86.0001 131.6 85.5001C127.3 85.0001 124 82.8001 121.7 78.9001C121 77.4001 120.7 75.8001 120.7 74.3001C120.7 72.4001 121.1 70.6001 122 68.6001C123.3 65.2001 126.2 60.0001 130.6 53.0001C127.1 52.8001 123.6 52.2001 120 51.4001C119 51.1001 118.6 50.5001 118.6 49.6001C118.6 49.1001 118.8 48.6001 119.1 48.1001C119.4 47.7001 119.9 47.4001 120.5 47.4001H121C125.1 48.4001 129.1 48.9001 133.1 49.0001C135 46.1001 136.9 43.3001 139 40.5001V40.4001C141.5 36.8001 144.2 33.3001 146.8 29.9001C150.6 25.5001 154.7 21.4001 159.1 17.6001C159.6 17.3001 160.2 17.1001 160.9 17.1001C161.6 17.1001 162.1 17.4001 162.3 18.1001C162.7 19.1001 162.9 20.1001 162.9 21.1001C162.9 23.0001 161.8 25.7001 159.6 29.2001L158.7 30.7001C154.7 37.3001 150.4 43.3001 145.7 48.7001L179.7 47.9001C181 47.9001 181.7 48.6001 181.7 49.9001C181.7 51.8001 170 52.8001 146.7 52.8001L142.2 52.9001C136.8 59.0001 131.3 65.0001 125.5 70.7001C125.1 71.7001 124.9 72.7001 125.1 73.7001C125.2 75.7001 126 77.4001 127.3 78.8001C128.7 80.3001 130.6 81.2001 132.9 81.4001C134.5 81.6001 136 81.7001 137.5 81.8001H142C164.5 81.7001 187.9 77.4001 212.4 69.1001L213 69.0001C213.5 69.0001 214 69.2001 214.3 69.6001C214.6 70.0001 214.8 70.5001 214.8 70.9001C214.8 71.9001 214.3 72.6001 213.4 73.0001C193.4 80.1001 172.7 84.3001 151.4 85.5001L148.5 85.7001C145.8 86.0001 143.2 86.1001 140.6 86.2001ZM132.6 57.5001L136.5 53.2001H135.3L132.6 57.5001ZM140.1 49.2001C146.5 41.8001 151.7 34.7001 155.7 27.7001L156.5 26.5001C157 25.7001 157.5 25.0001 157.7 24.3001C152.4 29.2001 147.3 35.3001 142.4 42.4001L137.8 49.2001H140.1Z" stroke="#EB4301" stroke-width="2" stroke-miterlimit="10"/>
<path d="M229.4 84.9002C226.2 84.9002 224.6 83.5002 224.6 80.8002C224.6 80.0002 224.8 79.0002 225.3 78.0002C227.4 74.2002 230.1 71.0002 233.4 68.4002L233.8 68.0002C238.5 64.1002 240.8 61.3002 240.8 59.5002C240.8 59.0002 240.6 58.5002 240.2 58.3002L239.8 58.2002C239.5 58.2002 239.1 58.3002 238.5 58.5002H238.4C235.9 59.4002 233.6 60.8002 231.4 62.8002C228 65.6002 225.1 67.2002 222.5 67.6002C220.4 69.9002 217.7 71.5002 214.6 72.4002L213.9 72.5002C212.7 72.5002 212 71.8002 212 70.4002C212 69.4002 212.5 68.8002 213.4 68.3002C215.1 67.8002 216.4 67.2002 217.1 66.5002C216.1 66.2002 215.7 64.9002 215.7 62.7002C215.7 61.8002 216.1 60.7002 216.9 59.4002C217.7 58.1002 219.1 57.4002 221.1 57.4002C223.7 57.4002 225 58.8002 225 61.6002L225.1 62.0002C226.3 61.3002 227.6 60.4002 229 59.2002L229.1 59.1002C233.5 55.5002 237.3 53.7002 240.4 53.7002C242.3 53.7002 243.8 54.8002 244.7 57.0002C244.9 57.8002 245 58.5002 245 59.3002C245 62.9002 241.4 67.3002 234.2 72.7002C233.2 73.7002 232.1 74.7002 231 75.9002C229.6 77.3002 228.9 78.7002 228.9 79.8002C228.9 80.2002 229.1 80.4002 229.5 80.4002L232.9 79.6002C243.6 76.6002 253.4 72.8002 262.6 68.4002L263.4 68.3002C263.9 68.3002 264.4 68.5002 264.8 68.8002C265.3 69.1002 265.5 69.7002 265.5 70.4002C265.5 71.1002 265.1 71.6002 264.4 71.9002C255.5 76.2002 246.6 79.8002 237.8 82.5002L236 83.0002C233.9 84.3002 231.7 84.7002 229.4 84.9002ZM220.1 63.7002C220.6 62.9002 220.8 62.3002 220.8 61.7002C220.7 61.6002 220.5 61.5002 220.2 61.5002C219.9 61.5002 219.8 61.7002 219.8 62.1002C219.8 63.2002 219.9 63.7002 220.1 63.7002Z" fill="#EB4301"/>
<path d="M229.4 84.9002C226.2 84.9002 224.6 83.5002 224.6 80.8002C224.6 80.0002 224.8 79.0002 225.3 78.0002C227.4 74.2002 230.1 71.0002 233.4 68.4002L233.8 68.0002C238.5 64.1002 240.8 61.3002 240.8 59.5002C240.8 59.0002 240.6 58.5002 240.2 58.3002L239.8 58.2002C239.5 58.2002 239.1 58.3002 238.5 58.5002H238.4C235.9 59.4002 233.6 60.8002 231.4 62.8002C228 65.6002 225.1 67.2002 222.5 67.6002C220.4 69.9002 217.7 71.5002 214.6 72.4002L213.9 72.5002C212.7 72.5002 212 71.8002 212 70.4002C212 69.4002 212.5 68.8002 213.4 68.3002C215.1 67.8002 216.4 67.2002 217.1 66.5002C216.1 66.2002 215.7 64.9002 215.7 62.7002C215.7 61.8002 216.1 60.7002 216.9 59.4002C217.7 58.1002 219.1 57.4002 221.1 57.4002C223.7 57.4002 225 58.8002 225 61.6002L225.1 62.0002C226.3 61.3002 227.6 60.4002 229 59.2002L229.1 59.1002C233.5 55.5002 237.3 53.7002 240.4 53.7002C242.3 53.7002 243.8 54.8002 244.7 57.0002C244.9 57.8002 245 58.5002 245 59.3002C245 62.9002 241.4 67.3002 234.2 72.7002C233.2 73.7002 232.1 74.7002 231 75.9002C229.6 77.3002 228.9 78.7002 228.9 79.8002C228.9 80.2002 229.1 80.4002 229.5 80.4002L232.9 79.6002C243.6 76.6002 253.4 72.8002 262.6 68.4002L263.4 68.3002C263.9 68.3002 264.4 68.5002 264.8 68.8002C265.3 69.1002 265.5 69.7002 265.5 70.4002C265.5 71.1002 265.1 71.6002 264.4 71.9002C255.5 76.2002 246.6 79.8002 237.8 82.5002L236 83.0002C233.9 84.3002 231.7 84.7002 229.4 84.9002ZM220.1 63.7002C220.6 62.9002 220.8 62.3002 220.8 61.7002C220.7 61.6002 220.5 61.5002 220.2 61.5002C219.9 61.5002 219.8 61.7002 219.8 62.1002C219.8 63.2002 219.9 63.7002 220.1 63.7002Z" stroke="#EB4301" stroke-width="2" stroke-miterlimit="10"/>
<path d="M290.5 82.3C286.4 82.3 282.4 82.0001 278.3 81.4001L277.7 81.3C268.5 80.2 262.9 77.2001 261 72.4001C260.9 71.6001 260.8 70.8 260.8 70.1C260.8 66.7 263.1 63.2001 267.6 59.7001C270.1 57.8001 272.5 56.8 274.7 56.8C277.4 56.8 279.1 58.0001 279.8 60.4001L279.9 61.5001C279.9 63.7001 278.5 65.8001 275.6 67.9001C272.2 70.4001 268.9 71.8001 265.6 72.2001L266.1 72.7001C267.2 73.8001 268.5 74.6 269.9 75.1C272.4 75.9 274 76.3 274.7 76.3C279.9 77.5 285.2 78.1 290.5 78.1C303.1 78.1 315.1 75.0001 326.5 68.9001C326.8 68.7001 327.2 68.6 327.6 68.6C327.9 68.6 328.4 68.8 328.8 69.1C329.3 69.4 329.5 70.0001 329.5 70.9001C329.5 71.6001 329.1 72.1001 328.4 72.4001C316.8 79.0001 304.1 82.3 290.5 82.3ZM265.4 68.3C266.3 68.2 267.5 67.8001 269.1 67.0001C271.7 65.7001 273.7 64.4001 275.1 63.2001C275.6 62.8001 275.8 62.3 275.8 61.8C275.8 61.3 275.5 61.1 275 61.1C273 61.1 270.8 62.3 268.4 64.8C266.7 65.9 265.7 67.2 265.4 68.3Z" fill="#EB4301"/>
<path d="M290.5 82.3C286.4 82.3 282.4 82.0001 278.3 81.4001L277.7 81.3C268.5 80.2 262.9 77.2001 261 72.4001C260.9 71.6001 260.8 70.8 260.8 70.1C260.8 66.7 263.1 63.2001 267.6 59.7001C270.1 57.8001 272.5 56.8 274.7 56.8C277.4 56.8 279.1 58.0001 279.8 60.4001L279.9 61.5001C279.9 63.7001 278.5 65.8001 275.6 67.9001C272.2 70.4001 268.9 71.8001 265.6 72.2001L266.1 72.7001C267.2 73.8001 268.5 74.6 269.9 75.1C272.4 75.9 274 76.3 274.7 76.3C279.9 77.5 285.2 78.1 290.5 78.1C303.1 78.1 315.1 75.0001 326.5 68.9001C326.8 68.7001 327.2 68.6 327.6 68.6C327.9 68.6 328.4 68.8 328.8 69.1C329.3 69.4 329.5 70.0001 329.5 70.9001C329.5 71.6001 329.1 72.1001 328.4 72.4001C316.8 79.0001 304.1 82.3 290.5 82.3ZM265.4 68.3C266.3 68.2 267.5 67.8001 269.1 67.0001C271.7 65.7001 273.7 64.4001 275.1 63.2001C275.6 62.8001 275.8 62.3 275.8 61.8C275.8 61.3 275.5 61.1 275 61.1C273 61.1 270.8 62.3 268.4 64.8C266.7 65.9 265.7 67.2 265.4 68.3Z" stroke="#EB4301" stroke-width="2" stroke-miterlimit="10"/>
<path d="M357 82.8001C356 82.8001 354.5 82.7001 352.5 82.6001C350.4 82.5001 348.3 81.6001 346.2 80.0001C344.2 78.6001 343.2 76.3001 343.2 73.1001C343.2 70.5001 343.8 67.9001 345.1 65.5001C340.4 68.1001 334.8 70.6001 328.2 72.8001L327.6 72.9001C327 72.9001 326.6 72.7001 326.2 72.3001C325.8 71.9001 325.6 71.4001 325.6 70.8001C325.6 69.9001 326.1 69.3001 327 68.8001C334.5 66.3001 341.5 63.1001 348.1 59.0001C353.6 47.0001 360.6 35.0001 369.1 22.8001C373.4 16.2001 378.3 10.4001 383.9 5.30011C386.8 2.80011 389.2 1.6001 391.1 1.6001C393.7 1.6001 395 3.20012 395 6.50012C395 8.00012 394.7 9.80011 394 11.8001C391.2 19.2001 387.4 26.1001 382.7 32.5001C374 44.6001 363.5 54.4001 351.3 61.9001L350.6 63.4001C348.4 67.5001 347.3 70.8001 347.3 73.2001C347.3 75.6001 348.3 77.2001 350.2 77.8001C352 78.4001 353.9 78.7001 356.1 78.7001C359.5 78.7001 363.3 78.2001 367.4 77.1001C375 75.2001 382.3 72.5001 389.3 69.0001C389.6 68.8001 390 68.7001 390.3 68.7001C390.7 68.7001 391.2 68.9001 391.6 69.3001C392.1 69.7001 392.3 70.2001 392.3 71.0001C392.3 71.7001 392 72.2001 391.3 72.5001C382.1 77.3001 372.4 80.6001 362.3 82.4001C360.7 82.6001 358.9 82.8001 357 82.8001ZM354.8 54.6001C369 45.0001 380.2 31.8001 388.4 14.9001C389.4 12.9001 390.2 10.7001 390.8 8.40015C391 7.70015 391.1 7.10012 391.1 6.50012C391.1 6.20012 391 6.1001 390.7 6.1001C390.4 6.1001 390.1 6.20011 389.8 6.30011C384.4 9.30011 377.3 17.7001 368.3 31.6001C363.1 39.2001 358.7 46.9001 354.8 54.6001Z" fill="#EB4301"/>
<path d="M357 82.8001C356 82.8001 354.5 82.7001 352.5 82.6001C350.4 82.5001 348.3 81.6001 346.2 80.0001C344.2 78.6001 343.2 76.3001 343.2 73.1001C343.2 70.5001 343.8 67.9001 345.1 65.5001C340.4 68.1001 334.8 70.6001 328.2 72.8001L327.6 72.9001C327 72.9001 326.6 72.7001 326.2 72.3001C325.8 71.9001 325.6 71.4001 325.6 70.8001C325.6 69.9001 326.1 69.3001 327 68.8001C334.5 66.3001 341.5 63.1001 348.1 59.0001C353.6 47.0001 360.6 35.0001 369.1 22.8001C373.4 16.2001 378.3 10.4001 383.9 5.30011C386.8 2.80011 389.2 1.6001 391.1 1.6001C393.7 1.6001 395 3.20012 395 6.50012C395 8.00012 394.7 9.80011 394 11.8001C391.2 19.2001 387.4 26.1001 382.7 32.5001C374 44.6001 363.5 54.4001 351.3 61.9001L350.6 63.4001C348.4 67.5001 347.3 70.8001 347.3 73.2001C347.3 75.6001 348.3 77.2001 350.2 77.8001C352 78.4001 353.9 78.7001 356.1 78.7001C359.5 78.7001 363.3 78.2001 367.4 77.1001C375 75.2001 382.3 72.5001 389.3 69.0001C389.6 68.8001 390 68.7001 390.3 68.7001C390.7 68.7001 391.2 68.9001 391.6 69.3001C392.1 69.7001 392.3 70.2001 392.3 71.0001C392.3 71.7001 392 72.2001 391.3 72.5001C382.1 77.3001 372.4 80.6001 362.3 82.4001C360.7 82.6001 358.9 82.8001 357 82.8001ZM354.8 54.6001C369 45.0001 380.2 31.8001 388.4 14.9001C389.4 12.9001 390.2 10.7001 390.8 8.40015C391 7.70015 391.1 7.10012 391.1 6.50012C391.1 6.20012 391 6.1001 390.7 6.1001C390.4 6.1001 390.1 6.20011 389.8 6.30011C384.4 9.30011 377.3 17.7001 368.3 31.6001C363.1 39.2001 358.7 46.9001 354.8 54.6001Z" stroke="#EB4301" stroke-width="2" stroke-miterlimit="10"/>
<path d="M391 80.9C387.4 80.9 385.5 79.1 385.2 75.4C385.3 72.7 386.4 70.6 388.6 69.3C393.5 66.4 398.2 65 402.7 65C405.1 65 407.4 65.7 409.5 67.2C409.8 67.5 410.3 67.6 410.7 67.6C412.1 67.6 412.8 68.5 412.8 70.2C412.8 74 415.4 75.9 420.5 75.9C427.8 75.9 437.2 73.8 448.8 69.5C450.1 69 450.9 68.8 451.3 68.8C451.8 68.8 452.3 69 452.7 69.5C453.1 70 453.3 70.5 453.3 70.9C453.3 71.9 452.8 72.5 451.9 72.9C443 76.1 433.8 78.4 424.5 79.9C423.3 80.2 422 80.3 420.8 80.3C418 80.3 415.4 79.6 412.9 78.1C410.8 76.6 409.6 75 409.2 73.4C405.5 76.2 401.1 78.4 396.1 80C394 80.6 392.3 80.9 391 80.9ZM392.4 76.5C393.6 76.5 395.1 76.2 396.8 75.5C400.2 74.1 403.5 72.4 406.5 70.2C405.3 69.4 403.8 69.1 401.9 69.1C400.1 69.1 397.6 69.8 394.4 71.1C391.2 72.4 389.6 73.6 389.6 74.6C389.6 74.9 389.7 75.3 390 75.6C390.5 76.2 391.3 76.5 392.4 76.5Z" fill="#EB4301"/>
<path d="M391 80.9C387.4 80.9 385.5 79.1 385.2 75.4C385.3 72.7 386.4 70.6 388.6 69.3C393.5 66.4 398.2 65 402.7 65C405.1 65 407.4 65.7 409.5 67.2C409.8 67.5 410.3 67.6 410.7 67.6C412.1 67.6 412.8 68.5 412.8 70.2C412.8 74 415.4 75.9 420.5 75.9C427.8 75.9 437.2 73.8 448.8 69.5C450.1 69 450.9 68.8 451.3 68.8C451.8 68.8 452.3 69 452.7 69.5C453.1 70 453.3 70.5 453.3 70.9C453.3 71.9 452.8 72.5 451.9 72.9C443 76.1 433.8 78.4 424.5 79.9C423.3 80.2 422 80.3 420.8 80.3C418 80.3 415.4 79.6 412.9 78.1C410.8 76.6 409.6 75 409.2 73.4C405.5 76.2 401.1 78.4 396.1 80C394 80.6 392.3 80.9 391 80.9ZM392.4 76.5C393.6 76.5 395.1 76.2 396.8 75.5C400.2 74.1 403.5 72.4 406.5 70.2C405.3 69.4 403.8 69.1 401.9 69.1C400.1 69.1 397.6 69.8 394.4 71.1C391.2 72.4 389.6 73.6 389.6 74.6C389.6 74.9 389.7 75.3 390 75.6C390.5 76.2 391.3 76.5 392.4 76.5Z" stroke="#EB4301" stroke-width="2" stroke-miterlimit="10"/>
<path d="M478.8 83.0002C463 83.0002 453.6 80.0002 450.7 73.9002C450.4 72.9002 450.3 71.9002 450.3 71.0002C450.3 67.8002 452.4 64.5002 456.7 61.1002C459.4 58.8002 462 57.7002 464.2 57.7002C466.7 57.7002 468.4 58.8002 469.3 61.0002C469.4 61.6002 469.5 62.1002 469.5 62.5002C469.5 64.9002 468 67.0002 465.1 68.8002C464.7 69.1002 464.3 69.2002 464 69.2002C462.7 69.2002 462 68.4002 462 66.9002C462 66.3002 462.4 65.6002 463.2 64.9002C464.4 64.2002 465 63.6002 465 63.1002C465 62.8002 465 62.6002 464.9 62.4002C464.6 61.9002 464.4 61.7002 464.2 61.7002C463.7 61.7002 463.1 61.9002 462.3 62.2002C460.7 63.1002 459.2 64.2002 457.9 65.4002C455.7 67.3002 454.6 69.2002 454.6 71.0002C454.6 72.0002 455.1 73.0002 456.2 74.0002C457.3 75.0002 458.6 75.7002 460.1 76.1002C465.5 77.7002 471.3 78.6002 477.4 78.6002C491.7 78.6002 504.9 75.3002 517 68.8002C517.3 68.6002 517.7 68.5002 518.1 68.5002C519.4 68.5002 520.1 69.3002 520.1 70.8002C520.1 71.4002 519.8 71.9002 519.2 72.3002C506.2 79.5002 492.8 83.0002 478.8 83.0002Z" fill="#EB4301"/>
<path d="M478.8 83.0002C463 83.0002 453.6 80.0002 450.7 73.9002C450.4 72.9002 450.3 71.9002 450.3 71.0002C450.3 67.8002 452.4 64.5002 456.7 61.1002C459.4 58.8002 462 57.7002 464.2 57.7002C466.7 57.7002 468.4 58.8002 469.3 61.0002C469.4 61.6002 469.5 62.1002 469.5 62.5002C469.5 64.9002 468 67.0002 465.1 68.8002C464.7 69.1002 464.3 69.2002 464 69.2002C462.7 69.2002 462 68.4002 462 66.9002C462 66.3002 462.4 65.6002 463.2 64.9002C464.4 64.2002 465 63.6002 465 63.1002C465 62.8002 465 62.6002 464.9 62.4002C464.6 61.9002 464.4 61.7002 464.2 61.7002C463.7 61.7002 463.1 61.9002 462.3 62.2002C460.7 63.1002 459.2 64.2002 457.9 65.4002C455.7 67.3002 454.6 69.2002 454.6 71.0002C454.6 72.0002 455.1 73.0002 456.2 74.0002C457.3 75.0002 458.6 75.7002 460.1 76.1002C465.5 77.7002 471.3 78.6002 477.4 78.6002C491.7 78.6002 504.9 75.3002 517 68.8002C517.3 68.6002 517.7 68.5002 518.1 68.5002C519.4 68.5002 520.1 69.3002 520.1 70.8002C520.1 71.4002 519.8 71.9002 519.2 72.3002C506.2 79.5002 492.8 83.0002 478.8 83.0002Z" stroke="#EB4301" stroke-width="2" stroke-miterlimit="10"/>
<path d="M542.5 82.3C538.4 82.3 534.4 82.0001 530.3 81.4001L529.7 81.3C520.5 80.2 514.9 77.2001 513 72.4001C512.9 71.6001 512.8 70.8 512.8 70.1C512.8 66.7 515.1 63.2001 519.6 59.7001C522.1 57.8001 524.5 56.8 526.7 56.8C529.4 56.8 531.1 58.0001 531.8 60.4001L531.9 61.5001C531.9 63.7001 530.5 65.8001 527.6 67.9001C524.2 70.4001 520.9 71.8001 517.6 72.2001L518.1 72.7001C519.2 73.8001 520.5 74.6 521.9 75.1C524.4 75.9 526 76.3 526.7 76.3C531.9 77.5 537.2 78.1 542.5 78.1C555.1 78.1 567.1 75.0001 578.5 68.9001C578.8 68.7001 579.2 68.6 579.6 68.6C579.9 68.6 580.4 68.8 580.8 69.1C581.3 69.4 581.5 70.0001 581.5 70.9001C581.5 71.6001 581.1 72.1001 580.4 72.4001C568.7 79.0001 556.1 82.3 542.5 82.3ZM517.3 68.3C518.2 68.2 519.4 67.8001 521 67.0001C523.6 65.7001 525.6 64.4001 527 63.2001C527.5 62.8001 527.7 62.3 527.7 61.8C527.7 61.3 527.4 61.1 526.9 61.1C524.9 61.1 522.7 62.3 520.3 64.8C518.7 65.9 517.7 67.2 517.3 68.3Z" fill="#EB4301"/>
<path d="M542.5 82.3C538.4 82.3 534.4 82.0001 530.3 81.4001L529.7 81.3C520.5 80.2 514.9 77.2001 513 72.4001C512.9 71.6001 512.8 70.8 512.8 70.1C512.8 66.7 515.1 63.2001 519.6 59.7001C522.1 57.8001 524.5 56.8 526.7 56.8C529.4 56.8 531.1 58.0001 531.8 60.4001L531.9 61.5001C531.9 63.7001 530.5 65.8001 527.6 67.9001C524.2 70.4001 520.9 71.8001 517.6 72.2001L518.1 72.7001C519.2 73.8001 520.5 74.6 521.9 75.1C524.4 75.9 526 76.3 526.7 76.3C531.9 77.5 537.2 78.1 542.5 78.1C555.1 78.1 567.1 75.0001 578.5 68.9001C578.8 68.7001 579.2 68.6 579.6 68.6C579.9 68.6 580.4 68.8 580.8 69.1C581.3 69.4 581.5 70.0001 581.5 70.9001C581.5 71.6001 581.1 72.1001 580.4 72.4001C568.7 79.0001 556.1 82.3 542.5 82.3ZM517.3 68.3C518.2 68.2 519.4 67.8001 521 67.0001C523.6 65.7001 525.6 64.4001 527 63.2001C527.5 62.8001 527.7 62.3 527.7 61.8C527.7 61.3 527.4 61.1 526.9 61.1C524.9 61.1 522.7 62.3 520.3 64.8C518.7 65.9 517.7 67.2 517.3 68.3Z" stroke="#EB4301" stroke-width="2" stroke-miterlimit="10"/>
<path d="M535.8 50.3C535.5 50.2 535.3 50.1001 535.1 49.9001C534.4 49.2001 534.2 48.3001 534.5 47.4001C534.6 47.1001 534.8 46.9 535 46.6L538.9 42C539.6 41.2 540.4 40.9001 541.3 41.2001C541.6 41.3001 541.8 41.5001 542.1 41.7001C542.8 42.4001 542.9 43.2001 542.6 44.2001C542.5 44.5001 542.4 44.7 542.2 45L538.3 49.6C537.5 50.3 536.7 50.6 535.8 50.3Z" fill="#EB4301"/>
</svg>
