<svg width="294" height="293" viewBox="0 0 294 293" fill="none" xmlns="http://www.w3.org/2000/svg">
  <path d="M292 139.4C292 142.3 289.5 144.7 286.5 144.5C285.7 144.5 284.9 144.4 284.1 144.5C281 144.8 279.6 144.3 279.4 141.2C278.7 129.4 277 117.9 273.4 106.6C267.4 87.8 257.8 71.1 244.3 56.6C229.7 40.8 212.4 29.1 192.2 21.7C180.7 17.5 168.9 15 156.6 14C149.1 13.4 141.7 13.6 134.2 14.1C132.8 14.2 131.5 14.3 130.6 15.6C124 25 117.5 34.5 115.2 46C111.6 64.2 115.4 80.5 127.9 94.5C136.2 103.8 146.7 109.8 158.5 113.6C171.3 117.7 183.2 123.6 192.8 133.3C197.1 137.6 200.7 142.4 203.6 147.8C204.8 150 206.1 152.1 203 153.9C200.2 155.5 196.2 154.9 194.7 152.3C193 149.4 191.3 146.6 189.2 144C181.8 134.6 172 128.8 160.9 124.9C151.5 121.6 142 118.4 133.8 112.4C114.9 98.5 105 79.9 105.5 56.3C105.8 42.2 111 29.5 119.7 18.4C120.1 17.9 120.4 17.4 121 16.7C119.4 16.2 118.2 16.7 117 17C79.5 26.1 50.9 47.4 31.3 80.6C21.8 96.7 16.2 114.2 14.4 132.7C10.9 169.6 20.7 202.8 44.5 231.4C64.9 256 91 271.2 122.5 277.3C127 278.2 131.2 277.4 135.4 276.4C152.4 272.6 168.1 266.1 181.8 255.2C196.4 243.5 206.5 228.6 213.3 211.4C215.6 205.6 217.6 199.7 219.1 193.6C219.5 191.8 220.1 190.1 222.5 190.3C225 190.6 226 192.5 226 194.5C226 203.7 222.9 212.3 219.1 220.6C213.3 233 205.6 244.1 195.8 253.5C184.1 264.8 170.4 272.9 154.8 277.6C153.9 277.9 153 278.2 152.2 278.5C152.1 278.5 152.1 278.7 151.9 279.3C156.9 278.8 161.7 278.6 166.4 277.8C198.4 272.9 225.1 258 246.6 234C256.6 222.8 264.5 210.2 269.8 196.2C271 193 272.6 191.9 276.2 191.9C278 192 279.9 191.8 281.8 191.9C284 191.9 284.4 192.6 283.9 195C281 202.7 277.7 210.2 273.7 217.4C261.4 239.2 244.6 256.8 223.3 270C205.5 281.1 186.1 288 165.3 290.7C162.6 291 159.7 290.8 157.1 291.7C150.2 291.7 143.6 291.8 136.7 291.8C133 290.8 129.1 291 125.4 290.3C90.2 284.6 60.6 268.6 37.1 241.7C18.9 220.9 7.60001 196.8 3.20001 169.5C2.50001 165.3 2 161.2 1.5 157C1.6 150.7 1.69999 140.7 1.79999 134.5C2.39999 131.3 2.39999 128.1 2.89999 124.9C8.59999 89.7 24.6 60.1 51.5 36.6C72.3 18.4 96.4 7.10001 123.7 2.70001C127.9 2.00001 132 1.5 136.2 1C142.5 1.1 152.5 1.19999 158.8 1.29999C162 1.89999 165.2 1.89999 168.3 2.39999C203.5 8.09999 233.1 24.1 256.6 51C274.8 71.8 286.1 95.9 290.5 123.2C291.2 127.6 291.7 132 292.3 136.4V139.4H292Z" fill="#EB4301" stroke="#EB4301" stroke-width="2" stroke-miterlimit="10"/>
  <path d="M139.4 245.8C122.1 246 108.3 241.1 96.1 231.5C94.4 230.1 92.7 228.9 94.5 226.4C96.4 223.8 99.7 222.9 102 224.6C108.2 229.2 115.1 232.2 122.5 234.3C143.9 240.3 169.4 232 183.3 214.7C190.1 206.2 194.7 196.9 195.9 186C196.2 183.3 197.6 182.9 199.8 183.7C203.4 185 205.7 189.4 204.7 193.4C198.4 219 182.2 235.2 157.4 243.1C151 245.2 144.5 246.2 139.4 245.8Z" fill="#EB4301" stroke="#EB4301" stroke-width="2" stroke-miterlimit="10"/>
  <path d="M137.8 81.0999C137.8 65.5999 150.4 53.8999 166.7 53.9999C181 54.0999 193.6 66.7999 193.4 80.7999C193.4 82.4999 193.3 84.1999 191.6 85.0999C190.3 85.7999 188.8 86.0999 187.4 85.3999C185.8 84.5999 185.9 83.0999 185.9 81.5999C185.9 74.2999 182.9 68.7999 176.8 64.8999C164.2 56.7999 147.2 65.2999 146.1 80.1999C145.6 87.2999 150.5 94.3999 158.6 97.8999C166.4 101.3 174.4 104.4 182 108.1C195.5 114.8 207.9 123.1 216.5 136C217 136.7 217.4 137.4 217.8 138.1C218.9 140.3 219.5 142.4 216.7 144C213.8 145.6 210.4 145.3 209 142.9C200.4 128.1 186.6 119.9 171.7 113C164.6 109.8 157.1 107.4 150.5 103.2C142.2 98.3999 137.8 90.6999 137.8 81.0999Z" fill="#EB4301" stroke="#EB4301" stroke-width="2" stroke-miterlimit="10"/>
</svg>
