<svg width="238" height="248" viewBox="0 0 238 248" fill="none" xmlns="http://www.w3.org/2000/svg">
  <mask id="mask0_73_181" style="mask-type:luminance" maskUnits="userSpaceOnUse" x="43" y="43" width="151" height="151">
  <path d="M193.3 43.3999H43.1001V193.6H193.3V43.3999Z" fill="white"/>
  </mask>
  <g mask="url(#mask0_73_181)">
  <path d="M111.8 50.2C111.1 50.2 110.4 50.2999 110 50.9999C106.6 55.8999 103.2 60.7 102.1 66.7C100.2 76.1 102.2 84.5 108.6 91.7C112.9 96.5 118.3 99.5999 124.4 101.5C131 103.6 137.1 106.7 142.1 111.7C144.3 113.9 146.2 116.4 147.7 119.2C148.3 120.3 149 121.4 147.4 122.3C146 123.1 143.9 122.8 143.1 121.5C142.2 120 141.3 118.6 140.3 117.2C136.5 112.3 131.4 109.3 125.7 107.3C120.8 105.6 115.9 104 111.7 100.9C101.9 93.6999 96.8002 84.0999 97.1002 71.8999C97.3002 64.5999 100 58.1 104.5 52.3C104.7 52.1 104.9 51.7999 105.2 51.3999C104.4 51.0999 103.7 51.3999 103.1 51.5999" fill="#CC2F17"/>
  </g>
  <mask id="mask1_73_181" style="mask-type:luminance" maskUnits="userSpaceOnUse" x="119" y="69" width="44" height="50">
  <path d="M162.2 69.8H119V118.5H162.2V69.8Z" fill="white"/>
  </mask>
  <g mask="url(#mask1_73_181)">
  <path d="M119 84.2001C119 75.9001 125.7 69.6001 134.5 69.7001C142.2 69.8001 148.9 76.5001 148.8 84.0001C148.8 84.9001 148.8 85.8002 147.8 86.3002C147.1 86.7002 146.3 86.8001 145.6 86.5001C144.8 86.1001 144.8 85.3001 144.8 84.5001C144.8 80.6001 143.2 77.7001 139.9 75.6001C133.2 71.3001 124.1 75.8002 123.5 83.8002C123.2 87.6002 125.9 91.4002 130.2 93.3002C134.4 95.1002 138.7 96.7002 142.7 98.8002C149.9 102.4 156.6 106.8 161.1 113.7C161.3 114.1 161.6 114.4 161.8 114.8C162.4 116 162.7 117.1 161.2 117.9C160.1 118.5 158.5 118.7 157.5 117.9C157.4 117.8 157.3 117.6 157 117.3C156.4 116.6 156.3 116.1 155.8 115.4C155.6 115.1 155.3 114.7 155.1 114.4C150.5 108.3 144 104.5 137.1 101.4C133.3 99.7001 129.3 98.4001 125.7 96.2001C121.3 93.5001 119 89.4001 119 84.2001Z" fill="#CC2F17"/>
  </g>
  <mask id="mask2_73_181" style="mask-type:luminance" maskUnits="userSpaceOnUse" x="90" y="137" width="59" height="33">
  <path d="M148.3 137.6H90.8999V169.9H148.3V137.6Z" fill="white"/>
  </mask>
  <g mask="url(#mask2_73_181)">
  <path d="M114.5 169.8C105.6 169.9 98.3999 167.4 92.0999 162.4C91.1999 161.7 90.2999 161.1 91.2999 159.8C92.2999 158.4 93.9999 158 95.1999 158.9C98.3999 161.3 101.9 162.8 105.8 163.9C116.8 167 130 162.7 137.2 153.8C140.7 149.4 143.1 144.6 143.7 139C143.9 137.6 144.6 137.4 145.7 137.8C147.5 138.5 148.7 140.8 148.2 142.8C144.9 156 136.6 164.4 123.8 168.5C120.5 169.5 117.1 170 114.5 169.8Z" fill="#CC2F17"/>
  </g>
  <path d="M119 192.3C159.206 192.3 191.8 159.706 191.8 119.5C191.8 79.2936 159.206 46.7 119 46.7C78.7936 46.7 46.2 79.2936 46.2 119.5C46.2 159.706 78.7936 192.3 119 192.3Z" stroke="#CC2F17" stroke-width="7" stroke-miterlimit="10"/>
  <path d="M123.3 189.7C123.3 189.7 160.2 173.4 163.5 141C163.5 141 163 138.3 159.9 138.6C159.9 138.6 159.2 138.7 158.9 140.1C158.9 140.1 154.9 174.2 110.7 188.6C110.7 188.5 121.5 190.5 123.3 189.7Z" fill="#CC3018"/>
</svg>
