<svg xmlns="http://www.w3.org/2000/svg" xmlns:xlink="http://www.w3.org/1999/xlink" width="297" zoomAndPan="magnify" viewBox="0 0 222.75 89.999999" height="120" preserveAspectRatio="xMidYMid meet" version="1.0">
  <defs>
    <clipPath id="1a5b67ca4d">
      <path d="M 0 0.0507812 L 89.898438 0.0507812 L 89.898438 89.949219 L 0 89.949219 Z M 0 0.0507812 " clip-rule="nonzero"/>
    </clipPath>
    <clipPath id="02d1dff379">
      <path d="M 62.125 48 L 82 48 L 82 56 L 62.125 56 Z M 62.125 48 " clip-rule="nonzero"/>
    </clipPath>
    <clipPath id="7feb5a2032">
      <path d="M 62.125 40 L 89 40 L 89 56.765625 L 62.125 56.765625 Z M 62.125 40 " clip-rule="nonzero"/>
    </clipPath>
    <clipPath id="31db1b188a">
      <path d="M 72 43 L 105 43 L 105 56.765625 L 72 56.765625 Z M 72 43 " clip-rule="nonzero"/>
    </clipPath><clipPath id="5f9e9a6734">
      <path d="M 94 37 L 121 37 L 121 56.765625 L 94 56.765625 Z M 94 37 " clip-rule="nonzero"/>
    </clipPath>
    <clipPath id="e54ee8e116">
      <path d="M 86 32.792969 L 129 32.792969 L 129 56.765625 L 86 56.765625 Z M 86 32.792969 " clip-rule="nonzero"/>
    </clipPath>
    <clipPath id="c5a653e32b">
      <path d="M 112 39 L 143 39 L 143 56.765625 L 112 56.765625 Z M 112 39 " clip-rule="nonzero"/>
    </clipPath>
    <clipPath id="e8422f99f5">
      <path d="M 125 40 L 161 40 L 161 56.765625 L 125 56.765625 Z M 125 40 " clip-rule="nonzero"/>
    </clipPath>
    <clipPath id="fe771d99d8">
      <path d="M 143 32.792969 L 178 32.792969 L 178 56.765625 L 143 56.765625 Z M 143 32.792969 " clip-rule="nonzero"/>
    </clipPath>
    <clipPath id="360d3a48ef">
      <path d="M 159 42 L 194 42 L 194 56.765625 L 159 56.765625 Z M 159 42 " clip-rule="nonzero"/>
    </clipPath>
    <clipPath id="81880b84cc">
      <path d="M 177 40 L 213 40 L 213 56.765625 L 177 56.765625 Z M 177 40 " clip-rule="nonzero"/>
    </clipPath>
    <clipPath id="ab1dc0bf26">
      <path d="M 202 48 L 221.695312 48 L 221.695312 56 L 202 56 Z M 202 48 " clip-rule="nonzero"/>
    </clipPath>
    <clipPath id="e0bfdf9767">
      <path d="M 194 40 L 221.695312 40 L 221.695312 56.765625 L 194 56.765625 Z M 194 40 " clip-rule="nonzero"/>
    </clipPath>
  </defs>
  <g clip-path="url(#1a5b67ca4d)"><path stroke-linecap="butt" transform="matrix(0.305744, 0, 0, 0.306823, 0.00515367, 0.0504499)" fill-opacity="1" fill="#eb4301" fill-rule="nonzero" stroke-linejoin="miter" d="M 291.996061 139.395943 C 291.996061 142.298677 289.504701 144.70489 286.502293 144.501189 C 285.697392 144.501189 284.905267 144.399339 284.100367 144.501189 C 280.995749 144.794009 279.603143 144.297489 279.398723 141.203786 C 278.696032 129.401883 276.996797 117.90553 273.393908 106.600147 C 267.401868 87.796036 257.794163 71.105319 244.302491 56.604383 C 229.69929 40.804855 212.40031 29.104802 192.201132 21.695193 C 180.702548 17.493868 168.897336 14.998536 156.593851 14.005496 C 149.09422 13.394394 141.696798 13.598095 134.197166 14.094615 C 132.80456 14.196465 131.501387 14.298315 130.594276 15.596907 C 124.001755 25.005328 117.498667 34.502868 115.198951 45.99922 C 111.596061 64.204961 115.40337 80.501009 127.898497 94.505425 C 136.20303 103.799264 146.70507 109.7957 158.497506 113.602355 C 171.299262 117.70183 183.193908 123.596416 192.801613 133.297657 C 197.094418 137.600832 200.697307 142.400527 203.597506 147.798593 C 204.798469 150.001105 206.101642 152.101768 202.997024 153.896879 C 200.199035 155.501021 196.200084 154.902651 194.705268 152.305468 C 193.006033 149.402735 191.294021 146.601852 189.198724 144.004669 C 181.801302 134.596248 172.001953 128.803512 160.899432 124.895007 C 151.496146 121.597604 142.003427 118.402051 133.801104 112.405614 C 114.905098 98.503049 105.00354 79.902638 105.501812 56.298832 C 105.795665 42.205297 110.99558 29.499472 119.696175 18.39779 C 120.105013 17.90127 120.398866 17.404749 120.999347 16.704529 C 119.402322 16.195277 118.201359 16.704529 117.000396 16.997348 C 79.502237 26.100219 50.896316 47.399662 31.29762 80.602859 C 21.8049 96.695206 16.196147 114.200726 14.394702 132.699286 C 10.894022 169.594556 20.706147 202.797753 44.495438 231.404956 C 64.899036 256.001802 91.000821 271.202959 122.494163 277.301246 C 127.004163 278.205167 131.194758 277.403096 135.398129 276.397324 C 152.403257 272.603401 168.105211 266.097713 181.801302 255.199731 C 196.404503 243.499678 206.497704 228.604072 213.294644 211.404103 C 215.594361 205.598636 217.600225 199.70405 219.095041 193.605764 C 219.50388 191.797921 220.104361 190.10466 222.506287 190.295629 C 224.997647 190.60118 225.994191 192.498142 225.994191 194.496954 C 225.994191 203.701675 222.90235 212.295293 219.095041 220.596093 C 213.294644 232.996366 205.60337 244.098049 195.804021 253.493739 C 184.101018 264.799122 170.404928 272.89622 154.805183 277.594065 C 153.898072 277.899616 153.003738 278.205167 152.198837 278.497987 C 152.096628 278.497987 152.096628 278.701687 151.904985 279.300058 C 156.90048 278.803538 161.704333 278.599837 166.405976 277.797766 C 198.397591 272.89622 225.099857 258.000614 246.602208 234.002138 C 256.605976 222.798605 264.50167 210.194631 269.803794 196.202946 C 271.004758 192.994662 272.601783 191.899771 276.204673 191.899771 C 278.006117 192.001622 279.896995 191.797921 281.80065 191.899771 C 283.998157 191.899771 284.394219 192.599992 283.895947 195.006205 C 280.995749 202.695903 277.699488 210.194631 273.700537 217.40054 C 261.397052 239.196503 244.596344 256.803873 223.298412 270.006218 C 205.50116 281.095169 186.094106 287.995527 165.294446 290.69456 C 162.598667 291.000111 159.698469 290.79641 157.1049 291.700332 C 150.205749 291.700332 143.600452 291.802182 136.701302 291.802182 C 132.996203 290.79641 129.099461 291.000111 125.394361 290.29989 C 90.19592 284.596273 60.606231 268.605777 37.098016 241.704567 C 18.904702 220.901644 7.597761 196.801317 3.202747 169.505437 C 2.500056 165.304113 2.001784 161.204638 1.503512 157.003313 C 1.605722 150.701326 1.695155 140.694534 1.797365 134.494398 C 2.397846 131.298844 2.397846 128.103291 2.896118 124.895007 C 8.594305 89.705729 24.602889 60.105487 51.496798 36.60353 C 72.296458 18.39779 96.405155 7.105138 123.695126 2.700113 C 127.898497 1.999892 131.999659 1.503372 136.20303 0.99412 C 142.501699 1.095971 152.505466 1.197821 158.804135 1.299671 C 161.998186 1.898042 165.205013 1.898042 168.296854 2.394562 C 203.495296 8.098178 233.09776 24.101406 256.605976 51.002616 C 274.79929 71.80554 286.106231 95.905866 290.501245 123.201746 C 291.203936 127.59404 291.702208 131.999065 292.302689 136.404091 L 292.302689 139.395943 Z M 291.996061 139.395943 " stroke="#eb4301" stroke-width="2" stroke-opacity="1" stroke-miterlimit="10"/></g><path stroke-linecap="butt" transform="matrix(0.305744, 0, 0, 0.306823, 0.00515367, 0.0504499)" fill-opacity="1" fill="#eb4301" fill-rule="nonzero" stroke-linejoin="miter" d="M 139.397081 245.804041 C 122.098101 245.995011 108.299801 241.106196 96.098526 231.494075 C 94.399291 230.106364 92.700056 228.896892 94.5015 226.40156 C 96.405155 223.804377 99.701415 222.900456 102.001132 224.593717 C 108.197591 229.202443 115.096741 232.194295 122.494163 234.294958 C 143.894305 240.304125 169.395608 232.003326 183.296118 214.701507 C 190.105834 206.197007 194.705268 196.903167 195.906231 186.005185 C 196.200084 183.306153 197.605466 182.898751 199.802973 183.700822 C 203.405863 184.999414 205.705579 189.404439 204.696259 193.402063 C 198.397591 219.004682 182.197364 235.198879 157.398752 243.105008 C 150.997874 245.205671 144.494786 246.198711 139.397081 245.804041 Z M 139.397081 245.804041 " stroke="#eb4301" stroke-width="2" stroke-opacity="1" stroke-miterlimit="10"/><path stroke-linecap="butt" transform="matrix(0.305744, 0, 0, 0.306823, 0.00515367, 0.0504499)" fill-opacity="1" fill="#eb4301" fill-rule="nonzero" stroke-linejoin="miter" d="M 137.800055 81.099379 C 137.800055 65.605403 150.397393 53.90535 166.699829 53.994469 C 180.996401 54.096319 193.593738 66.802144 193.402095 80.793828 C 193.402095 82.499821 193.299885 84.205813 191.60065 85.097003 C 190.297477 85.797224 188.802662 86.102775 187.397279 85.402554 C 185.800254 84.600483 185.902463 83.098191 185.902463 81.595899 C 185.902463 74.300872 182.900055 68.800956 176.805806 64.905182 C 164.195693 56.795352 147.203342 65.299852 146.104588 80.195458 C 145.606316 87.299516 150.499602 94.403574 158.599715 97.904678 C 166.405976 101.303932 174.40388 104.397635 182.005721 108.102439 C 195.497392 114.799096 207.903086 123.099896 216.501472 135.996689 C 216.999744 136.69691 217.395806 137.397131 217.804644 138.097352 C 218.903398 140.299865 219.50388 142.400527 216.705891 144.004669 C 213.805693 145.59608 210.394446 145.30326 209.00184 142.897047 C 200.403455 128.103291 186.605154 119.904342 171.695324 113.003985 C 164.604531 109.7957 157.1049 107.402218 150.499602 103.200894 C 142.19507 98.401198 137.800055 90.69877 137.800055 81.099379 Z M 137.800055 81.099379 " stroke="#eb4301" stroke-width="2" stroke-opacity="1" stroke-miterlimit="10"/><g clip-path="url(#02d1dff379)"><path fill="#eb4301" d="M 70.539062 55.214844 C 69.417969 55.214844 68.320312 55.132812 67.199219 54.96875 L 67.035156 54.941406 C 64.519531 54.640625 62.984375 53.824219 62.464844 52.515625 C 62.4375 52.300781 62.410156 52.082031 62.410156 51.890625 C 62.410156 50.964844 63.039062 50.011719 64.273438 49.058594 C 64.957031 48.539062 65.613281 48.265625 66.214844 48.265625 C 66.953125 48.265625 67.417969 48.59375 67.609375 49.246094 L 67.636719 49.546875 C 67.636719 50.148438 67.253906 50.71875 66.460938 51.292969 C 65.53125 51.972656 64.628906 52.355469 63.722656 52.460938 L 63.859375 52.597656 C 64.164062 52.898438 64.519531 53.117188 64.902344 53.253906 C 65.585938 53.46875 66.023438 53.578125 66.214844 53.578125 C 67.636719 53.90625 69.089844 54.070312 70.539062 54.070312 C 73.988281 54.070312 77.269531 53.226562 80.390625 51.5625 C 80.472656 51.507812 80.582031 51.480469 80.691406 51.480469 C 80.773438 51.480469 80.910156 51.535156 81.019531 51.617188 C 81.15625 51.699219 81.210938 51.863281 81.210938 52.109375 C 81.210938 52.300781 81.101562 52.433594 80.910156 52.515625 C 77.707031 54.316406 74.261719 55.214844 70.539062 55.214844 Z M 63.640625 51.398438 C 63.886719 51.371094 64.21875 51.265625 64.65625 51.046875 C 65.367188 50.691406 65.914062 50.335938 66.296875 50.011719 C 66.433594 49.902344 66.488281 49.765625 66.488281 49.628906 C 66.488281 49.492188 66.40625 49.4375 66.269531 49.4375 C 65.722656 49.4375 65.121094 49.765625 64.464844 50.445312 C 64.023438 50.746094 63.75 51.101562 63.640625 51.398438 Z M 63.640625 51.398438 " fill-opacity="1" fill-rule="nonzero"/></g>
  <g clip-path="url(#7feb5a2032)">
    <path stroke-linecap="butt" transform="matrix(0.273664, 0, 0, 0.272422, 62.137061, 32.793757)" fill="none" stroke-linejoin="miter" d="M 30.7019 82.302924 C 26.605291 82.302924 22.594327 82.001805 18.497718 81.399567 L 17.898215 81.299194 C 8.705825 80.195092 3.096184 77.198242 1.197756 72.39468 C 1.097839 71.606035 0.997921 70.803052 0.997921 70.100441 C 0.997921 66.7021 3.296019 63.203386 7.80657 59.704671 C 10.304502 57.797585 12.702516 56.793856 14.900696 56.793856 C 17.598463 56.793856 19.297056 57.998331 19.996477 60.392943 L 20.096395 61.497045 C 20.096395 63.70525 18.697553 65.798743 15.799952 67.906575 C 12.402764 70.40156 9.105494 71.806781 5.79395 72.193934 L 6.293537 72.695799 C 7.406901 73.799901 8.705825 74.602885 10.104667 75.104749 C 12.602599 75.893394 14.201275 76.294886 14.900696 76.294886 C 20.096395 77.499361 25.406284 78.101599 30.7019 78.101599 C 43.30575 78.101599 55.295823 75.004376 66.700666 68.895966 C 67.000418 68.69522 67.400087 68.594847 67.799756 68.594847 C 68.099508 68.594847 68.599095 68.795593 68.998764 69.096711 C 69.49835 69.39783 69.698185 70.000068 69.698185 70.903425 C 69.698185 71.606035 69.298516 72.093561 68.599095 72.39468 C 56.8945 79.004955 44.304923 82.302924 30.7019 82.302924 Z M 5.494199 68.293728 C 6.393454 68.193355 7.606735 67.806202 9.205412 67.003219 C 11.803261 65.69837 13.801606 64.393522 15.200448 63.203386 C 15.700035 62.801894 15.899869 62.300029 15.899869 61.798164 C 15.899869 61.2963 15.600117 61.095554 15.100531 61.095554 C 13.102185 61.095554 10.904005 62.300029 8.505991 64.795014 C 6.89304 65.899116 5.893868 67.203964 5.494199 68.293728 Z M 5.494199 68.293728 " stroke="#eb4301" stroke-width="2" stroke-opacity="1" stroke-miterlimit="10"/>
  </g>
  <path fill="#eb4301" d="M 81.101562 55.515625 C 80.9375 55.515625 80.800781 55.488281 80.691406 55.433594 C 80.28125 55.1875 80.0625 54.695312 80.0625 53.960938 C 80.0625 52.871094 80.363281 51.917969 80.992188 51.101562 C 81.128906 50.9375 81.265625 50.855469 81.429688 50.855469 C 81.648438 50.855469 81.839844 50.9375 81.976562 51.128906 C 82.03125 51.210938 82.058594 51.292969 82.058594 51.371094 C 82.058594 51.453125 82.03125 51.5625 81.949219 51.671875 C 81.429688 52.355469 81.183594 53.089844 81.183594 53.90625 L 81.183594 54.152344 C 81.183594 54.234375 81.210938 54.261719 81.238281 54.261719 C 81.265625 54.261719 81.347656 54.207031 81.457031 54.097656 C 81.566406 53.988281 81.8125 53.796875 82.195312 53.550781 L 83.457031 52.652344 C 84.6875 51.671875 85.753906 51.15625 86.601562 51.15625 C 87.339844 51.15625 87.945312 51.480469 88.382812 52.109375 C 88.683594 52.488281 89.121094 52.679688 89.695312 52.679688 C 90.214844 52.679688 91.664062 52.40625 94.074219 51.835938 C 95.222656 51.5625 95.878906 51.453125 96.015625 51.453125 C 96.152344 51.453125 96.289062 51.507812 96.398438 51.644531 C 96.507812 51.78125 96.5625 51.917969 96.5625 52.054688 C 96.5625 52.273438 96.425781 52.433594 96.179688 52.570312 L 94.347656 52.925781 C 93.855469 53.035156 93.363281 53.144531 92.84375 53.226562 L 92.101562 53.390625 C 91.0625 53.660156 90.214844 53.796875 89.558594 53.796875 C 88.628906 53.796875 87.945312 53.46875 87.503906 52.789062 C 87.285156 52.40625 87.011719 52.21875 86.65625 52.21875 C 86.574219 52.21875 86.410156 52.246094 86.21875 52.300781 C 85.78125 52.40625 84.960938 52.925781 83.703125 53.824219 L 82.550781 54.640625 C 81.976562 55.242188 81.484375 55.515625 81.101562 55.515625 Z M 81.101562 55.515625 " fill-opacity="1" fill-rule="nonzero"/>
  <g clip-path="url(#31db1b188a)">
    <path stroke-linecap="butt" transform="matrix(0.273664, 0, 0, 0.272422, 62.137061, 32.793757)" fill="none" stroke-linejoin="miter" d="M 69.298516 83.407026 C 68.699012 83.407026 68.199426 83.306653 67.799756 83.105907 C 66.300997 82.202551 65.501659 80.395838 65.501659 77.700107 C 65.501659 73.699528 66.600749 70.200814 68.898847 67.203964 C 69.398433 66.601727 69.898019 66.300608 70.497523 66.300608 C 71.296861 66.300608 71.996282 66.601727 72.495868 67.304337 C 72.695703 67.605456 72.79562 67.906575 72.79562 68.193355 C 72.79562 68.494474 72.695703 68.895966 72.395951 69.297457 C 70.497523 71.806781 69.598267 74.502512 69.598267 77.499361 L 69.598267 78.402718 C 69.598267 78.703836 69.698185 78.804209 69.798102 78.804209 C 69.898019 78.804209 70.197771 78.603463 70.59744 78.201972 C 70.997109 77.80048 71.896365 77.097869 73.295207 76.194513 L 77.905675 72.896544 C 82.401953 69.297457 86.298726 67.40471 89.396162 67.40471 C 92.093928 67.40471 94.306382 68.594847 95.905059 70.903425 C 97.004149 72.294307 98.602825 72.996917 100.701088 72.996917 C 102.599516 72.996917 107.895132 71.993188 116.702126 69.899695 C 120.898651 68.895966 123.296666 68.494474 123.796252 68.494474 C 124.295839 68.494474 124.795425 68.69522 125.195094 69.197084 C 125.594763 69.698949 125.794598 70.200814 125.794598 70.702679 C 125.794598 71.505662 125.295011 72.093561 124.395756 72.595426 L 117.701298 73.900274 C 115.902787 74.301766 114.104276 74.703258 112.205848 75.004376 L 109.493808 75.606614 C 105.696951 76.596005 102.599516 77.097869 100.201501 77.097869 C 96.804314 77.097869 94.306382 75.893394 92.693432 73.398409 C 91.894094 71.993188 90.894921 71.304916 89.595996 71.304916 C 89.296245 71.304916 88.696741 71.405289 87.99732 71.606035 C 86.398644 71.993188 83.401125 73.900274 78.804931 77.198242 L 74.594131 80.195092 C 72.495868 82.403296 70.697357 83.407026 69.298516 83.407026 Z M 69.298516 83.407026 " stroke="#eb4301" stroke-width="2" stroke-opacity="1" stroke-miterlimit="10"/>
  </g>
  <g clip-path="url(#5f9e9a6734)">
    <path fill="#eb4301" d="M 100.613281 56.277344 C 99.847656 56.277344 99.027344 56.222656 98.152344 56.085938 C 96.972656 55.949219 96.070312 55.351562 95.441406 54.289062 C 95.25 53.878906 95.167969 53.441406 95.167969 53.035156 C 95.167969 52.515625 95.277344 52.027344 95.523438 51.480469 C 95.878906 50.554688 96.671875 49.140625 97.878906 47.230469 C 96.917969 47.175781 95.960938 47.015625 94.976562 46.796875 C 94.703125 46.714844 94.59375 46.550781 94.59375 46.304688 C 94.59375 46.167969 94.648438 46.035156 94.730469 45.898438 C 94.8125 45.789062 94.949219 45.707031 95.113281 45.707031 L 95.25 45.707031 C 96.371094 45.980469 97.46875 46.113281 98.5625 46.140625 C 99.082031 45.351562 99.601562 44.589844 100.175781 43.828125 L 100.175781 43.800781 C 100.859375 42.820312 101.597656 41.867188 102.3125 40.9375 C 103.351562 39.742188 104.472656 38.625 105.675781 37.589844 C 105.8125 37.507812 105.976562 37.453125 106.167969 37.453125 C 106.359375 37.453125 106.496094 37.535156 106.550781 37.726562 C 106.664062 37.996094 106.71875 38.269531 106.71875 38.542969 C 106.71875 39.058594 106.414062 39.796875 105.8125 40.75 L 105.566406 41.15625 C 104.472656 42.957031 103.296875 44.589844 102.011719 46.0625 L 111.316406 45.84375 C 111.671875 45.84375 111.863281 46.035156 111.863281 46.386719 C 111.863281 46.90625 108.660156 47.175781 102.285156 47.175781 L 101.050781 47.203125 C 99.574219 48.867188 98.070312 50.5 96.480469 52.054688 C 96.371094 52.328125 96.316406 52.597656 96.371094 52.871094 C 96.398438 53.417969 96.617188 53.878906 96.972656 54.261719 C 97.359375 54.667969 97.878906 54.914062 98.507812 54.96875 C 98.945312 55.023438 99.355469 55.050781 99.765625 55.078125 L 100.996094 55.078125 C 107.15625 55.050781 113.558594 53.878906 120.261719 51.617188 L 120.425781 51.589844 C 120.5625 51.589844 120.699219 51.644531 120.785156 51.753906 C 120.867188 51.863281 120.921875 52 120.921875 52.109375 C 120.921875 52.382812 120.785156 52.570312 120.535156 52.679688 C 115.0625 54.613281 109.398438 55.757812 103.570312 56.085938 L 102.777344 56.140625 C 102.039062 56.222656 101.324219 56.25 100.613281 56.277344 Z M 98.425781 48.457031 L 99.492188 47.285156 L 99.164062 47.285156 Z M 100.476562 46.195312 C 102.230469 44.179688 103.652344 42.246094 104.746094 40.339844 L 104.964844 40.011719 C 105.101562 39.796875 105.238281 39.605469 105.292969 39.414062 C 103.84375 40.75 102.449219 42.410156 101.105469 44.34375 L 99.847656 46.195312 Z M 100.476562 46.195312 " fill-opacity="1" fill-rule="nonzero"/>
  </g>
  <g clip-path="url(#e54ee8e116)">
    <path stroke-linecap="butt" transform="matrix(0.273664, 0, 0, 0.272422, 62.137061, 32.793757)" fill="none" stroke-linejoin="miter" d="M 140.596628 86.203129 C 137.798945 86.203129 134.801426 86.002384 131.604074 85.500519 C 127.293357 84.998654 123.996087 82.804788 121.697989 78.904582 C 120.998568 77.398988 120.698817 75.793021 120.698817 74.301766 C 120.698817 72.39468 121.098486 70.602306 121.997741 68.594847 C 123.296666 65.196506 126.194267 60.00579 130.604901 52.994023 C 127.093522 52.793277 123.596418 52.205378 119.999396 51.402395 C 119.000223 51.101276 118.600554 50.499038 118.600554 49.595682 C 118.600554 49.093817 118.800388 48.606291 119.10014 48.104427 C 119.399892 47.702935 119.899478 47.401816 120.498982 47.401816 L 120.998568 47.401816 C 125.095177 48.405545 129.106142 48.893071 133.102833 48.993444 C 135.001261 46.096968 136.899689 43.300864 138.997952 40.504761 L 138.997952 40.404388 C 141.495884 36.8053 144.19365 33.306586 146.805773 29.893906 C 150.60263 25.506174 154.699238 21.405223 159.095598 17.60539 C 159.595184 17.304271 160.194688 17.103525 160.894109 17.103525 C 161.59353 17.103525 162.093116 17.404644 162.292951 18.107254 C 162.706894 19.096645 162.906728 20.100374 162.906728 21.104104 C 162.906728 22.996851 161.793364 25.70692 159.595184 29.205634 L 158.695929 30.69689 C 154.699238 37.307165 150.402795 43.300864 145.706683 48.706664 L 179.707104 47.903681 C 181.006029 47.903681 181.70545 48.606291 181.70545 49.896801 C 181.70545 51.803887 170.000855 52.793277 146.705856 52.793277 L 142.195305 52.89365 C 136.799772 59.002061 131.304322 64.99576 125.494846 70.702679 C 125.095177 71.706408 124.895342 72.695799 125.095177 73.699528 C 125.195094 75.706987 125.994432 77.398988 127.293357 78.804209 C 128.706473 80.295465 130.604901 81.198821 132.902998 81.399567 C 134.501674 81.600313 136.000434 81.700686 137.499193 81.801059 L 141.99547 81.801059 C 164.505405 81.700686 187.900321 77.398988 212.394327 69.096711 L 212.993831 68.996339 C 213.493417 68.996339 213.993004 69.197084 214.307029 69.598576 C 214.606781 70.000068 214.806616 70.501933 214.806616 70.903425 C 214.806616 71.907154 214.307029 72.595426 213.3935 72.996917 C 193.395771 80.094719 172.698621 84.296043 151.401968 85.500519 L 148.504367 85.701265 C 145.8066 86.002384 143.194477 86.102757 140.596628 86.203129 Z M 132.603246 57.496467 L 136.50002 53.194769 L 135.301013 53.194769 Z M 140.097042 49.19419 C 146.506021 41.79527 151.70172 34.697469 155.698411 27.70004 L 156.497749 26.495565 C 156.997335 25.70692 157.496922 25.00431 157.696756 24.301699 C 152.401141 29.205634 147.30536 35.299706 142.395139 42.397508 L 137.798945 49.19419 Z M 140.097042 49.19419 " stroke="#eb4301" stroke-width="2" stroke-opacity="1" stroke-miterlimit="10"/>
  </g>
  <path fill="#eb4301" d="M 124.914062 55.921875 C 124.039062 55.921875 123.601562 55.539062 123.601562 54.804688 C 123.601562 54.585938 123.65625 54.316406 123.792969 54.042969 C 124.367188 53.007812 125.105469 52.136719 126.011719 51.425781 L 126.121094 51.320312 C 127.40625 50.257812 128.035156 49.492188 128.035156 49.003906 C 128.035156 48.867188 127.980469 48.730469 127.871094 48.675781 L 127.761719 48.648438 C 127.679688 48.648438 127.570312 48.675781 127.40625 48.730469 L 127.378906 48.730469 C 126.695312 48.976562 126.066406 49.355469 125.460938 49.902344 C 124.53125 50.664062 123.738281 51.101562 123.027344 51.210938 C 122.453125 51.835938 121.714844 52.273438 120.867188 52.515625 L 120.671875 52.542969 C 120.34375 52.542969 120.152344 52.355469 120.152344 51.972656 C 120.152344 51.699219 120.289062 51.535156 120.535156 51.398438 C 121.003906 51.265625 121.359375 51.101562 121.550781 50.910156 C 121.277344 50.828125 121.167969 50.472656 121.167969 49.875 C 121.167969 49.628906 121.277344 49.328125 121.496094 48.976562 C 121.714844 48.621094 122.097656 48.429688 122.644531 48.429688 C 123.355469 48.429688 123.710938 48.8125 123.710938 49.574219 L 123.738281 49.683594 C 124.066406 49.492188 124.421875 49.25 124.804688 48.921875 L 124.832031 48.894531 C 126.039062 47.914062 127.078125 47.421875 127.925781 47.421875 C 128.445312 47.421875 128.855469 47.722656 129.101562 48.320312 C 129.15625 48.539062 129.183594 48.730469 129.183594 48.949219 C 129.183594 49.929688 128.199219 51.128906 126.230469 52.597656 C 125.957031 52.871094 125.65625 53.144531 125.351562 53.46875 C 124.96875 53.851562 124.777344 54.234375 124.777344 54.53125 C 124.777344 54.640625 124.832031 54.695312 124.941406 54.695312 L 125.875 54.480469 C 128.800781 53.660156 131.484375 52.625 134 51.425781 L 134.21875 51.398438 C 134.355469 51.398438 134.492188 51.453125 134.601562 51.535156 C 134.738281 51.617188 134.792969 51.78125 134.792969 51.972656 C 134.792969 52.164062 134.683594 52.300781 134.492188 52.382812 C 132.058594 53.550781 129.621094 54.53125 127.214844 55.269531 L 126.722656 55.40625 C 126.148438 55.757812 125.546875 55.867188 124.914062 55.921875 Z M 122.371094 50.148438 C 122.507812 49.929688 122.5625 49.765625 122.5625 49.601562 C 122.535156 49.574219 122.480469 49.546875 122.398438 49.546875 C 122.316406 49.546875 122.289062 49.601562 122.289062 49.710938 C 122.289062 50.011719 122.316406 50.148438 122.371094 50.148438 Z M 122.371094 50.148438 " fill-opacity="1" fill-rule="nonzero"/>
  <g clip-path="url(#c5a653e32b)">
    <path stroke-linecap="butt" transform="matrix(0.273664, 0, 0, 0.272422, 62.137061, 32.793757)" fill="none" stroke-linejoin="miter" d="M 229.394538 84.898281 C 226.197185 84.898281 224.598509 83.49306 224.598509 80.797329 C 224.598509 79.994346 224.798343 79.004955 225.29793 78.001226 C 227.396192 74.201393 230.093959 71.003797 233.405503 68.394101 L 233.805172 68.006948 C 238.501284 64.106742 240.799381 61.2963 240.799381 59.503926 C 240.799381 59.002061 240.599547 58.500196 240.199877 58.29945 L 239.800208 58.199077 C 239.500457 58.199077 239.100787 58.29945 238.501284 58.500196 L 238.401367 58.500196 C 235.903435 59.403553 233.605337 60.794435 231.392883 62.801894 C 227.995696 65.597997 225.098095 67.203964 222.500246 67.605456 C 220.401983 69.899695 217.704217 71.505662 214.606781 72.39468 L 213.893086 72.495053 C 212.694079 72.495053 211.994658 71.806781 211.994658 70.40156 C 211.994658 69.39783 212.494245 68.795593 213.3935 68.293728 C 215.106368 67.806202 216.405292 67.203964 217.104713 66.501354 C 216.10554 66.200235 215.705871 64.895387 215.705871 62.701521 C 215.705871 61.798164 216.10554 60.694062 216.904879 59.403553 C 217.704217 58.098704 219.103059 57.396094 221.101404 57.396094 C 223.699253 57.396094 224.998178 58.801315 224.998178 61.597418 L 225.098095 61.99891 C 226.297102 61.2963 227.596027 60.407282 228.994869 59.202807 L 229.094786 59.102434 C 233.50542 55.503347 237.302277 53.696634 240.399712 53.696634 C 242.29814 53.696634 243.796899 54.800736 244.696155 56.994602 C 244.895989 57.797585 244.995907 58.500196 244.995907 59.30318 C 244.995907 62.902267 241.398885 67.304337 234.204841 72.695799 C 233.205668 73.699528 232.106578 74.703258 230.993214 75.893394 C 229.594372 77.298615 228.894952 78.703836 228.894952 79.7936 C 228.894952 80.195092 229.094786 80.395838 229.494455 80.395838 L 232.905916 79.607193 C 243.597065 76.596005 253.403232 72.796172 262.595621 68.394101 L 263.394959 68.293728 C 263.894546 68.293728 264.394132 68.494474 264.793801 68.795593 C 265.293387 69.096711 265.493222 69.698949 265.493222 70.40156 C 265.493222 71.10417 265.093553 71.606035 264.394132 71.907154 C 255.501494 76.194513 246.594583 79.7936 237.801863 82.503669 L 236.003352 83.005534 C 233.905089 84.296043 231.706909 84.697535 229.394538 84.898281 Z M 220.102231 63.70525 C 220.601818 62.902267 220.801652 62.300029 220.801652 61.697791 C 220.701735 61.597418 220.5019 61.497045 220.202149 61.497045 C 219.902397 61.497045 219.802479 61.697791 219.802479 62.099283 C 219.802479 63.203386 219.902397 63.70525 220.102231 63.70525 Z M 220.102231 63.70525 " stroke="#eb4301" stroke-width="2" stroke-opacity="1" stroke-miterlimit="10"/>
  </g>
    <path fill="#eb4301" d="M 141.636719 55.214844 C 140.515625 55.214844 139.417969 55.132812 138.296875 54.96875 L 138.132812 54.941406 C 135.617188 54.640625 134.082031 53.824219 133.5625 52.515625 C 133.535156 52.300781 133.507812 52.082031 133.507812 51.890625 C 133.507812 50.964844 134.136719 50.011719 135.371094 49.058594 C 136.054688 48.539062 136.710938 48.265625 137.3125 48.265625 C 138.050781 48.265625 138.515625 48.59375 138.707031 49.246094 L 138.734375 49.546875 C 138.734375 50.148438 138.351562 50.71875 137.558594 51.292969 C 136.628906 51.972656 135.726562 52.355469 134.820312 52.460938 L 134.960938 52.597656 C 135.261719 52.898438 135.617188 53.117188 136 53.253906 C 136.683594 53.46875 137.121094 53.578125 137.3125 53.578125 C 138.734375 53.90625 140.1875 54.070312 141.636719 54.070312 C 145.085938 54.070312 148.367188 53.226562 151.488281 51.5625 C 151.570312 51.507812 151.679688 51.480469 151.789062 51.480469 C 151.871094 51.480469 152.007812 51.535156 152.117188 51.617188 C 152.253906 51.699219 152.308594 51.863281 152.308594 52.109375 C 152.308594 52.300781 152.199219 52.433594 152.007812 52.515625 C 148.832031 54.316406 145.359375 55.214844 141.636719 55.214844 Z M 134.765625 51.398438 C 135.015625 51.371094 135.34375 51.265625 135.78125 51.046875 C 136.492188 50.691406 137.039062 50.335938 137.421875 50.011719 C 137.558594 49.902344 137.613281 49.765625 137.613281 49.628906 C 137.613281 49.492188 137.53125 49.4375 137.394531 49.4375 C 136.847656 49.4375 136.246094 49.765625 135.589844 50.445312 C 135.125 50.746094 134.847656 51.101562 134.765625 51.398438 Z M 134.765625 51.398438 " fill-opacity="1" fill-rule="nonzero"/>
  <g clip-path="url(#e8422f99f5)">
    <path stroke-linecap="butt" transform="matrix(0.273664, 0, 0, 0.272422, 62.137061, 32.793757)" fill="none" stroke-linejoin="miter" d="M 290.501088 82.302924 C 286.40448 82.302924 282.393515 82.001805 278.296907 81.399567 L 277.697403 81.299194 C 268.505014 80.195092 262.895373 77.198242 260.996945 72.39468 C 260.897027 71.606035 260.79711 70.803052 260.79711 70.100441 C 260.79711 66.7021 263.095207 63.203386 267.605759 59.704671 C 270.10369 57.797585 272.501705 56.793856 274.699885 56.793856 C 277.397652 56.793856 279.096245 57.998331 279.795666 60.392943 L 279.895583 61.497045 C 279.895583 63.70525 278.496742 65.798743 275.599141 67.906575 C 272.201953 70.40156 268.904683 71.806781 265.593139 72.193934 L 266.106999 72.695799 C 267.20609 73.799901 268.505014 74.602885 269.903856 75.104749 C 272.401788 75.893394 274.000464 76.294886 274.699885 76.294886 C 279.895583 77.499361 285.205473 78.101599 290.501088 78.101599 C 303.104939 78.101599 315.095012 75.004376 326.499855 68.895966 C 326.799607 68.69522 327.199276 68.594847 327.598945 68.594847 C 327.898697 68.594847 328.398283 68.795593 328.797953 69.096711 C 329.297539 69.39783 329.497374 70.000068 329.497374 70.903425 C 329.497374 71.606035 329.097704 72.093561 328.398283 72.39468 C 316.793606 79.004955 304.104112 82.302924 290.501088 82.302924 Z M 265.393305 68.293728 C 266.306834 68.193355 267.505841 67.806202 269.104518 67.003219 C 271.702367 65.69837 273.700712 64.393522 275.099554 63.203386 C 275.599141 62.801894 275.798975 62.300029 275.798975 61.798164 C 275.798975 61.2963 275.499223 61.095554 274.999637 61.095554 C 273.001291 61.095554 270.803111 62.300029 268.405097 64.795014 C 266.706503 65.899116 265.693056 67.203964 265.393305 68.293728 Z M 265.393305 68.293728 " stroke="#eb4301" stroke-width="2" stroke-opacity="1" stroke-miterlimit="10"/>
  </g>
  <path fill="#eb4301" d="M 159.835938 55.351562 C 159.5625 55.351562 159.152344 55.324219 158.605469 55.296875 C 158.027344 55.269531 157.453125 55.023438 156.878906 54.585938 C 156.332031 54.207031 156.058594 53.578125 156.058594 52.707031 C 156.058594 52 156.222656 51.292969 156.578125 50.636719 C 155.292969 51.34375 153.757812 52.027344 151.953125 52.625 L 151.789062 52.652344 C 151.625 52.652344 151.515625 52.597656 151.40625 52.488281 C 151.296875 52.382812 151.242188 52.246094 151.242188 52.082031 C 151.242188 51.835938 151.378906 51.671875 151.625 51.535156 C 153.675781 50.855469 155.59375 49.984375 157.398438 48.867188 C 158.90625 45.597656 160.820312 42.328125 163.144531 39.003906 C 164.324219 37.207031 165.664062 35.628906 167.195312 34.238281 C 167.992188 33.554688 168.648438 33.230469 169.167969 33.230469 C 169.878906 33.230469 170.234375 33.664062 170.234375 34.566406 C 170.234375 34.972656 170.152344 35.464844 169.960938 36.007812 C 169.195312 38.023438 168.15625 39.902344 166.867188 41.648438 C 164.488281 44.945312 161.613281 47.613281 158.273438 49.65625 L 158.082031 50.066406 C 157.480469 51.183594 157.179688 52.082031 157.179688 52.734375 C 157.179688 53.390625 157.453125 53.824219 157.972656 53.988281 C 158.464844 54.152344 158.988281 54.234375 159.589844 54.234375 C 160.519531 54.234375 161.558594 54.097656 162.679688 53.796875 C 164.761719 53.28125 166.757812 52.542969 168.675781 51.589844 C 168.757812 51.535156 168.867188 51.507812 168.949219 51.507812 C 169.058594 51.507812 169.195312 51.5625 169.304688 51.671875 C 169.441406 51.78125 169.496094 51.917969 169.496094 52.136719 C 169.496094 52.328125 169.414062 52.460938 169.222656 52.542969 C 166.703125 53.851562 164.050781 54.75 161.285156 55.242188 C 160.847656 55.296875 160.355469 55.351562 159.835938 55.351562 Z M 159.234375 47.667969 C 163.117188 45.054688 166.183594 41.457031 168.429688 36.851562 C 168.703125 36.308594 168.921875 35.707031 169.085938 35.082031 C 169.140625 34.890625 169.167969 34.726562 169.167969 34.566406 C 169.167969 34.484375 169.140625 34.457031 169.058594 34.457031 C 168.976562 34.457031 168.894531 34.484375 168.8125 34.511719 C 167.332031 35.328125 165.390625 37.617188 162.925781 41.402344 C 161.503906 43.472656 160.300781 45.570312 159.234375 47.667969 Z M 159.234375 47.667969 " fill-opacity="1" fill-rule="nonzero"/>
  <g clip-path="url(#fe771d99d8)">
    <path stroke-linecap="butt" transform="matrix(0.273664, 0, 0, 0.272422, 62.137061, 32.793757)" fill="none" stroke-linejoin="miter" d="M 357.003172 82.804788 C 356.003999 82.804788 354.50524 82.704415 352.506895 82.604042 C 350.394358 82.503669 348.296095 81.600313 346.197832 79.994346 C 344.199487 78.603463 343.200314 76.294886 343.200314 73.09729 C 343.200314 70.501933 343.799818 67.906575 345.098742 65.497624 C 340.40263 68.092982 334.792989 70.602306 328.198449 72.796172 L 327.598945 72.896544 C 326.999442 72.896544 326.599773 72.695799 326.200103 72.294307 C 325.800434 71.907154 325.6006 71.405289 325.6006 70.803052 C 325.6006 69.899695 326.100186 69.297457 326.999442 68.795593 C 334.493237 66.300608 341.50172 63.103013 348.096261 59.002061 C 353.605985 47.000324 360.600194 34.998587 369.093162 22.796105 C 373.403879 16.200168 378.299825 10.407215 383.895193 5.302534 C 386.807068 2.79321 389.205082 1.603074 391.10351 1.603074 C 393.70136 1.603074 395.000284 3.194702 395.000284 6.507009 C 395.000284 7.998265 394.700532 9.804978 394.001111 11.798098 C 391.203428 19.197018 387.406571 26.094073 382.696185 32.503603 C 374.003383 44.605712 363.497795 54.399244 351.293613 61.898537 L 350.594192 63.404131 C 348.396012 67.505083 347.296922 70.803052 347.296922 73.197663 C 347.296922 75.606614 348.296095 77.198242 350.194523 77.80048 C 351.993034 78.402718 353.905736 78.703836 356.103916 78.703836 C 359.501104 78.703836 363.29796 78.201972 367.394569 77.097869 C 375.002555 75.205122 382.296516 72.495053 389.305 68.996339 C 389.604751 68.795593 390.00442 68.69522 390.304172 68.69522 C 390.703841 68.69522 391.203428 68.895966 391.603097 69.297457 C 392.102683 69.698949 392.302518 70.200814 392.302518 71.003797 C 392.302518 71.706408 392.002766 72.193934 391.303345 72.495053 C 382.096682 77.298615 372.404706 80.596583 362.298787 82.403296 C 360.700111 82.604042 358.9016 82.804788 357.003172 82.804788 Z M 354.804992 54.59999 C 368.993245 45.007204 380.198254 31.800992 388.405744 14.89532 C 389.404917 12.9022 390.204255 10.693995 390.803759 8.399756 C 391.003593 7.697146 391.10351 7.094908 391.10351 6.507009 C 391.10351 6.205891 391.003593 6.105518 390.703841 6.105518 C 390.40409 6.105518 390.104338 6.205891 389.804586 6.306264 C 384.394779 9.303113 377.300653 17.705763 368.293824 31.600246 C 363.098126 39.199912 358.701766 46.899951 354.804992 54.59999 Z M 354.804992 54.59999 " stroke="#eb4301" stroke-width="2" stroke-opacity="1" stroke-miterlimit="10"/>
  </g>
  <path fill="#eb4301" d="M 169.140625 54.832031 C 168.15625 54.832031 167.632812 54.34375 167.550781 53.335938 C 167.578125 52.597656 167.878906 52.027344 168.484375 51.671875 C 169.824219 50.882812 171.109375 50.5 172.339844 50.5 C 173 50.5 173.628906 50.691406 174.203125 51.101562 C 174.285156 51.183594 174.421875 51.210938 174.53125 51.210938 C 174.914062 51.210938 175.105469 51.453125 175.105469 51.917969 C 175.105469 52.953125 175.816406 53.46875 177.210938 53.46875 C 179.210938 53.46875 181.78125 52.898438 184.957031 51.726562 C 185.3125 51.589844 185.53125 51.535156 185.640625 51.535156 C 185.777344 51.535156 185.914062 51.589844 186.023438 51.726562 C 186.132812 51.863281 186.1875 52 186.1875 52.109375 C 186.1875 52.382812 186.050781 52.542969 185.804688 52.652344 C 183.371094 53.523438 180.851562 54.152344 178.308594 54.558594 C 177.980469 54.640625 177.625 54.667969 177.292969 54.667969 C 176.527344 54.667969 175.816406 54.476562 175.132812 54.070312 C 174.558594 53.660156 174.230469 53.226562 174.121094 52.789062 C 173.109375 53.550781 171.902344 54.152344 170.535156 54.585938 C 169.960938 54.75 169.496094 54.832031 169.140625 54.832031 Z M 169.523438 53.632812 C 169.851562 53.632812 170.261719 53.550781 170.726562 53.363281 C 171.65625 52.980469 172.558594 52.515625 173.382812 51.917969 C 173.054688 51.699219 172.640625 51.617188 172.121094 51.617188 C 171.628906 51.617188 170.945312 51.808594 170.070312 52.164062 C 169.195312 52.515625 168.757812 52.84375 168.757812 53.117188 C 168.757812 53.199219 168.785156 53.308594 168.867188 53.390625 C 169.003906 53.550781 169.222656 53.632812 169.523438 53.632812 Z M 169.523438 53.632812 " fill-opacity="1" fill-rule="nonzero"/>
  <g clip-path="url(#360d3a48ef)">
    <path stroke-linecap="butt" transform="matrix(0.273664, 0, 0, 0.272422, 62.137061, 32.793757)" fill="none" stroke-linejoin="miter" d="M 391.003593 80.897702 C 387.406571 80.897702 385.493869 79.105328 385.194117 75.405868 C 385.294035 72.695799 386.393125 70.602306 388.605579 69.297457 C 393.501525 66.400981 398.197637 64.99576 402.693914 64.99576 C 405.106203 64.99576 407.4043 65.69837 409.502563 67.203964 C 409.802315 67.505083 410.301901 67.605456 410.70157 67.605456 C 412.100412 67.605456 412.799833 68.494474 412.799833 70.200814 C 412.799833 74.000647 415.397682 75.893394 420.493463 75.893394 C 427.801698 75.893394 437.193922 73.799901 448.7986 69.498203 C 450.097524 68.996339 450.896863 68.795593 451.296532 68.795593 C 451.796118 68.795593 452.295704 68.996339 452.695374 69.498203 C 453.095043 70.000068 453.294877 70.501933 453.294877 70.903425 C 453.294877 71.907154 452.795291 72.495053 451.896035 72.896544 C 443.003398 76.09414 433.796735 78.402718 424.504428 79.893973 C 423.305421 80.195092 422.006496 80.295465 420.793215 80.295465 C 417.995531 80.295465 415.397682 79.592854 412.89975 78.101599 C 410.801488 76.596005 409.60248 75.004376 409.202811 73.398409 C 405.505872 76.194513 401.095238 78.402718 396.099374 79.994346 C 394.001111 80.596583 392.302518 80.897702 391.003593 80.897702 Z M 392.402435 76.495632 C 393.601442 76.495632 395.100201 76.194513 396.798795 75.506241 C 400.195982 74.10102 403.493253 72.39468 406.505045 70.200814 C 405.306037 69.39783 403.793004 69.096711 401.894576 69.096711 C 400.096065 69.096711 397.598133 69.799322 394.400781 71.10417 C 391.203428 72.39468 389.604751 73.599155 389.604751 74.602885 C 389.604751 74.904003 389.704669 75.305495 390.00442 75.606614 C 390.504007 76.194513 391.303345 76.495632 392.402435 76.495632 Z M 392.402435 76.495632 " stroke="#eb4301" stroke-width="2" stroke-opacity="1" stroke-miterlimit="10"/>
  </g>
    <path fill="#eb4301" d="M 193.167969 55.40625 C 188.84375 55.40625 186.269531 54.585938 185.476562 52.925781 C 185.394531 52.652344 185.367188 52.382812 185.367188 52.136719 C 185.367188 51.265625 185.941406 50.363281 187.121094 49.4375 C 187.859375 48.8125 188.570312 48.511719 189.171875 48.511719 C 189.855469 48.511719 190.320312 48.8125 190.566406 49.410156 C 190.59375 49.574219 190.621094 49.710938 190.621094 49.820312 C 190.621094 50.472656 190.210938 51.046875 189.417969 51.535156 C 189.308594 51.617188 189.199219 51.644531 189.117188 51.644531 C 188.761719 51.644531 188.570312 51.425781 188.570312 51.019531 C 188.570312 50.855469 188.679688 50.664062 188.898438 50.472656 C 189.226562 50.285156 189.390625 50.121094 189.390625 49.984375 C 189.390625 49.902344 189.390625 49.847656 189.363281 49.792969 C 189.28125 49.65625 189.226562 49.601562 189.171875 49.601562 C 189.035156 49.601562 188.871094 49.65625 188.652344 49.738281 C 188.214844 49.984375 187.804688 50.285156 187.449219 50.609375 C 186.84375 51.128906 186.542969 51.644531 186.542969 52.136719 C 186.542969 52.40625 186.679688 52.679688 186.984375 52.953125 C 187.285156 53.226562 187.640625 53.417969 188.050781 53.523438 C 189.527344 53.960938 191.113281 54.207031 192.785156 54.207031 C 196.699219 54.207031 200.308594 53.308594 203.621094 51.535156 C 203.703125 51.480469 203.8125 51.453125 203.921875 51.453125 C 204.277344 51.453125 204.46875 51.671875 204.46875 52.082031 C 204.46875 52.246094 204.386719 52.382812 204.222656 52.488281 C 200.664062 54.453125 197 55.40625 193.167969 55.40625 Z M 193.167969 55.40625 " fill-opacity="1" fill-rule="nonzero"/>
  <g clip-path="url(#81880b84cc)">
    <path stroke-linecap="butt" transform="matrix(0.273664, 0, 0, 0.272422, 62.137061, 32.793757)" fill="none" stroke-linejoin="miter" d="M 478.80233 83.005534 C 463.001127 83.005534 453.594629 79.994346 450.697028 73.900274 C 450.397276 72.896544 450.297359 71.907154 450.297359 71.003797 C 450.297359 67.806202 452.395622 64.493895 456.706338 61.095554 C 459.404105 58.801315 462.001954 57.697212 464.200134 57.697212 C 466.698066 57.697212 468.39666 58.801315 469.295915 60.995181 C 469.395832 61.597418 469.49575 62.099283 469.49575 62.500775 C 469.49575 64.895387 467.99699 67.003219 465.09939 68.795593 C 464.69972 69.096711 464.300051 69.197084 464.000299 69.197084 C 462.701375 69.197084 462.001954 68.394101 462.001954 66.902846 C 462.001954 66.300608 462.401623 65.597997 463.200961 64.895387 C 464.399969 64.207115 464.999472 63.604877 464.999472 63.103013 C 464.999472 62.801894 464.999472 62.601148 464.899555 62.400402 C 464.599803 61.898537 464.399969 61.697791 464.200134 61.697791 C 463.700548 61.697791 463.101044 61.898537 462.301706 62.199656 C 460.703029 63.103013 459.20427 64.207115 457.905346 65.397251 C 455.692892 67.304337 454.593802 69.197084 454.593802 71.003797 C 454.593802 71.993188 455.093388 72.996917 456.206752 74.000647 C 457.305842 75.004376 458.604767 75.706987 460.103526 76.09414 C 465.499059 77.700107 471.294261 78.603463 477.403488 78.603463 C 491.705932 78.603463 504.895013 75.305495 516.999277 68.795593 C 517.299029 68.594847 517.698698 68.494474 518.098367 68.494474 C 519.397292 68.494474 520.096712 69.297457 520.096712 70.803052 C 520.096712 71.405289 519.796961 71.907154 519.197457 72.294307 C 506.193937 79.50682 492.805022 83.005534 478.80233 83.005534 Z M 478.80233 83.005534 " stroke="#eb4301" stroke-width="2" stroke-opacity="1" stroke-miterlimit="10"/>
  </g>
  <g clip-path="url(#ab1dc0bf26)">
    <path fill="#eb4301" d="M 210.601562 55.214844 C 209.476562 55.214844 208.382812 55.132812 207.261719 54.96875 L 207.097656 54.941406 C 204.578125 54.640625 203.046875 53.824219 202.527344 52.515625 C 202.5 52.300781 202.472656 52.082031 202.472656 51.890625 C 202.472656 50.964844 203.101562 50.011719 204.332031 49.058594 C 205.015625 48.539062 205.671875 48.265625 206.277344 48.265625 C 207.015625 48.265625 207.480469 48.59375 207.671875 49.246094 L 207.699219 49.546875 C 207.699219 50.148438 207.316406 50.71875 206.523438 51.292969 C 205.589844 51.972656 204.6875 52.355469 203.785156 52.460938 L 203.921875 52.597656 C 204.222656 52.898438 204.578125 53.117188 204.960938 53.253906 C 205.644531 53.46875 206.085938 53.578125 206.277344 53.578125 C 207.699219 53.90625 209.148438 54.070312 210.601562 54.070312 C 214.046875 54.070312 217.332031 53.226562 220.453125 51.5625 C 220.535156 51.507812 220.644531 51.480469 220.753906 51.480469 C 220.835938 51.480469 220.972656 51.535156 221.082031 51.617188 C 221.21875 51.699219 221.273438 51.863281 221.273438 52.109375 C 221.273438 52.300781 221.164062 52.433594 220.972656 52.515625 C 217.769531 54.316406 214.320312 55.214844 210.601562 55.214844 Z M 203.703125 51.398438 C 203.949219 51.371094 204.277344 51.265625 204.714844 51.046875 C 205.425781 50.691406 205.976562 50.335938 206.359375 50.011719 C 206.496094 49.902344 206.550781 49.765625 206.550781 49.628906 C 206.550781 49.492188 206.46875 49.4375 206.332031 49.4375 C 205.785156 49.4375 205.179688 49.765625 204.523438 50.445312 C 204.085938 50.746094 203.8125 51.101562 203.703125 51.398438 Z M 203.703125 51.398438 " fill-opacity="1" fill-rule="nonzero"/>
  </g>
  <g clip-path="url(#e0bfdf9767)">
    <path stroke-linecap="butt" transform="matrix(0.273664, 0, 0, 0.272422, 62.137061, 32.793757)" fill="none" stroke-linejoin="miter" d="M 542.50673 82.302924 C 538.395848 82.302924 534.399157 82.001805 530.302548 81.399567 L 529.703045 81.299194 C 520.496382 80.195092 514.901014 77.198242 513.002586 72.39468 C 512.902669 71.606035 512.802751 70.803052 512.802751 70.100441 C 512.802751 66.7021 515.100849 63.203386 519.597126 59.704671 C 522.095058 57.797585 524.493073 56.793856 526.705526 56.793856 C 529.403293 56.793856 531.101887 57.998331 531.801307 60.392943 L 531.901225 61.497045 C 531.901225 63.70525 530.502383 65.798743 527.604782 67.906575 C 524.193321 70.40156 520.896051 71.806781 517.598781 72.193934 L 518.098367 72.695799 C 519.197457 73.799901 520.496382 74.602885 521.895223 75.104749 C 524.393155 75.893394 526.006106 76.294886 526.705526 76.294886 C 531.901225 77.499361 537.19684 78.101599 542.50673 78.101599 C 555.096306 78.101599 567.100653 75.004376 578.505497 68.895966 C 578.805248 68.69522 579.204918 68.594847 579.604587 68.594847 C 579.904338 68.594847 580.403925 68.795593 580.803594 69.096711 C 581.30318 69.39783 581.503015 70.000068 581.503015 70.903425 C 581.503015 71.606035 581.103346 72.093561 580.403925 72.39468 C 568.69933 79.004955 556.095479 82.302924 542.50673 82.302924 Z M 517.299029 68.293728 C 518.198284 68.193355 519.397292 67.806202 520.995968 67.003219 C 523.593817 65.69837 525.606436 64.393522 527.005278 63.203386 C 527.504865 62.801894 527.704699 62.300029 527.704699 61.798164 C 527.704699 61.2963 527.404947 61.095554 526.905361 61.095554 C 524.907016 61.095554 522.694562 62.300029 520.296547 64.795014 C 518.697871 65.899116 517.698698 67.203964 517.299029 68.293728 Z M 517.299029 68.293728 " stroke="#eb4301" stroke-width="2" stroke-opacity="1" stroke-miterlimit="10"/>
  </g>
  <path fill="#eb4301" d="M 208.765625 46.496094 C 208.683594 46.46875 208.628906 46.441406 208.574219 46.386719 C 208.382812 46.195312 208.328125 45.953125 208.410156 45.707031 C 208.4375 45.625 208.492188 45.570312 208.546875 45.488281 L 209.613281 44.234375 C 209.804688 44.015625 210.023438 43.9375 210.269531 44.015625 C 210.351562 44.042969 210.40625 44.097656 210.492188 44.152344 C 210.683594 44.34375 210.710938 44.5625 210.628906 44.835938 C 210.601562 44.917969 210.574219 44.972656 210.519531 45.050781 L 209.449219 46.304688 C 209.230469 46.496094 209.011719 46.578125 208.765625 46.496094 Z M 208.765625 46.496094 " fill-opacity="1" fill-rule="nonzero"/>
</svg>
